<svg xmlns="http://www.w3.org/2000/svg" viewBox="0 0 100 100" fill="none" shape-rendering="auto"><desc>"Thumbs" by "Florian Körner", licensed under "CC0 1.0". / Remix of the original. - Created with dicebear.com</desc><metadata xmlns:dc="http://purl.org/dc/elements/1.1/" xmlns:cc="http://creativecommons.org/ns#" xmlns:rdf="http://www.w3.org/1999/02/22-rdf-syntax-ns#"><rdf:RDF><cc:Work><dc:title>Thumbs</dc:title><dc:creator><cc:Agent rdf:about="https://dicebear.com"><dc:title>Florian Körner</dc:title></cc:Agent></dc:creator><dc:source>https://dicebear.com</dc:source><cc:license rdf:resource="https://creativecommons.org/publicdomain/zero/1.0/" /></cc:Work></rdf:RDF></metadata><mask id="viewboxMask"><rect width="100" height="100" rx="0" ry="0" x="0" y="0" fill="#fff" /></mask><g mask="url(#viewboxMask)"><rect fill="#0a5b83" width="100" height="100" x="0" y="0" /><g transform="translate(5, 2) rotate(4 50 70)"><path d="M95 53.33C95 29.4 74.85 10 50 10S5 29.4 5 53.33V140h90V53.33Z" fill="#f1f4dc"/><g transform="translate(29 33)"><g transform="translate(1, -14) rotate(-16 21 21)"><g transform="translate(0 2)"><path d="M11.86 7.5c0-1.42-4.14-2.85-4.82-4.98C6.34.4 16 5.37 16 7.5c0 2.13-9.65 7.11-8.96 4.98.68-2.13 4.82-3.56 4.82-4.98ZM30.14 7.5c0-1.42 4.14-2.85 4.82-4.98C35.66.4 26 5.37 26 7.5c0 2.13 9.65 7.11 8.96 4.98-.68-2.13-4.82-3.56-4.82-4.98Z" fill="#000000"/></g><g transform="translate(6 26)"><path d="M15 14C1.9 14-.72 1.29.15.23 1.03-.83 6.27 2.11 15 2.11S28.97-.83 29.85.23C30.72 1.3 28.1 14 15 14Z" fill="#000000"/></g></g></g></g></g></svg>