<svg width="390" height="684" viewBox="0 0 390 684" fill="none" xmlns="http://www.w3.org/2000/svg">
<path opacity="0.4" stroke="#065F9E" stroke-width="0.8" d="M84.2659 1C86.2599 18.1455 96.3956 36.7752 123.977 50.101C145.5 60.5 156.44 65.3169 172.5 74C189.373 83.1225 204.293 91.257 221.477 101.601C252.692 120.391 281.556 139.62 296.5 163C317.337 195.6 319.799 224.157 306.5 268C300.014 289.383 286.926 307.21 274.5 342C258.467 386.888 268.865 437 289 475.5C299.835 496.218 342.782 538.359 389 579.649"/>
<path opacity="0.4" stroke="#065F9E" stroke-width="0.8" d="M64.3855 1C66.3795 18.1455 76.5152 36.7752 104.096 50.101C125.62 60.5 136.559 65.3169 152.62 74C169.493 83.1225 184.412 91.257 201.596 101.601C232.812 120.391 261.676 139.62 276.62 163C297.457 195.6 299.919 224.157 286.62 268C280.133 289.383 267.046 307.21 254.62 342C238.587 386.888 248.984 437 269.12 475.5C281.499 499.171 335.798 550.809 389 597.19"/>
<path opacity="0.4" stroke="#065F9E" stroke-width="0.8" d="M48.0136 1C47.6089 20.1175 56.1513 42.6668 88.0962 58.101C109.62 68.5 120.559 73.3169 136.62 82C153.493 91.1225 168.412 99.257 185.596 109.601C216.812 128.391 245.676 147.62 260.62 171C281.457 203.6 283.919 232.157 270.62 276C264.133 297.383 251.046 315.21 238.62 350C222.587 394.888 232.984 445 253.12 483.5C266.747 509.556 331.162 569.495 389 619.012"/>
<path opacity="0.4" stroke="#065F9E" stroke-width="0.8" d="M35.8572 1C32.451 21.6034 37.9618 49.1595 75.0962 67.101C96.6196 77.5 107.559 82.3169 123.62 91C140.493 100.122 155.412 108.257 172.596 118.601C203.812 137.391 232.676 156.62 247.62 180C268.457 212.6 270.919 241.157 257.62 285C251.133 306.383 238.046 324.21 225.62 359C209.587 403.888 219.984 454 240.12 492.5C254.772 520.517 328.15 587.713 388.928 639"/>
<path opacity="0.4" stroke="#065F9E" stroke-width="0.8" d="M20.1353 1C14.6615 21.952 17.2197 53.3515 58.0962 73.101C79.6196 83.5 90.5591 88.3169 106.62 97C123.493 106.122 138.412 114.257 155.596 124.601C186.812 143.391 215.676 162.62 230.62 186C251.457 218.6 253.919 247.157 240.62 291C234.133 312.383 221.046 330.21 208.62 365C192.587 409.888 202.984 460 223.12 498.5C239.177 529.204 325.761 606.959 389 659.266"/>
<path opacity="0.4" stroke="#065F9E" stroke-width="0.8" d="M6.61949 1C-2.04718 20.5 -6.99815 59.8642 41.0962 83.101C62.6196 93.5 73.5591 98.3169 89.6196 107C106.493 116.122 121.412 124.257 138.596 134.601C169.812 153.391 198.676 172.62 213.62 196C234.457 228.6 236.919 257.157 223.62 301C217.133 322.383 204.046 340.21 191.62 375C175.587 419.888 185.984 470 206.12 508.5C223.674 542.066 325.516 631.864 389 683.171"/>
</svg>
