<?xml version="1.0" encoding="UTF-8" standalone="no"?>
<!DOCTYPE svg PUBLIC "-//W3C//DTD SVG 1.1//EN" "http://www.w3.org/Graphics/SVG/1.1/DTD/svg11.dtd">
<svg xmlns="http://www.w3.org/2000/svg" version="1.1" viewBox="0.00 0.00 887.00 887.00">
<g stroke-width="2.00" fill="none" stroke-linecap="butt">
<path stroke="#939096" vector-effect="non-scaling-stroke" d="
  M 628.00 336.39
  C 626.14 326.33 618.03 316.84 610.66 309.75
  Q 592.23 292.01 572.64 277.98
  C 570.46 276.42 567.71 274.21 566.18 272.03
  Q 558.27 260.67 544.43 248.82
  Q 534.14 239.99 523.98 230.06
  C 516.44 222.69 508.19 210.72 514.82 200.78
  Q 519.05 194.43 527.89 194.32
  Q 535.14 194.24 543.25 193.01
  C 547.97 192.29 551.93 190.57 555.93 188.14
  C 562.22 184.31 564.27 176.00 563.40 168.75
  Q 560.09 141.05 535.94 131.24
  Q 533.00 130.05 530.38 129.60
  C 514.97 126.97 504.74 134.18 501.23 148.90
  Q 499.30 157.02 497.57 165.49
  C 495.94 173.41 492.19 181.36 482.26 179.14
  C 475.25 177.58 469.46 173.59 464.23 168.72
  Q 448.40 154.00 433.21 138.38
  Q 429.40 134.46 425.54 131.03
  Q 421.11 127.09 414.65 128.44
  C 407.31 129.98 400.68 136.18 395.12 141.62
  Q 382.99 153.47 370.98 165.13
  Q 365.52 170.43 361.43 177.46
  C 357.61 184.01 357.96 190.66 362.03 196.99
  Q 367.68 205.81 379.48 207.92
  Q 387.70 209.40 395.87 210.79
  Q 408.60 212.97 413.74 225.30
  C 417.30 233.85 412.71 244.03 406.07 250.00
  C 398.44 256.86 392.04 259.86 381.17 258.61
  C 372.35 257.59 366.95 246.18 364.47 238.73
  C 362.12 231.64 360.69 223.80 357.52 217.74
  C 349.32 202.04 331.70 207.65 321.74 217.24
  Q 304.53 233.80 291.00 248.26
  Q 286.25 253.33 281.27 259.64
  C 277.64 264.24 272.44 267.23 268.17 271.27
  Q 253.00 285.64 238.19 299.85
  C 233.23 304.60 224.46 310.55 217.46 309.79
  C 211.35 309.12 207.35 303.15 205.01 297.69
  Q 199.66 285.25 195.23 273.03
  C 193.84 269.18 191.15 263.46 186.99 262.28
  Q 180.49 260.43 173.85 260.91
  C 164.13 261.61 155.27 263.91 147.64 270.03
  C 137.87 277.85 135.31 288.94 137.17 300.92
  C 139.82 318.08 161.82 321.62 175.33 325.22
  C 182.67 327.17 190.92 333.60 189.34 342.19
  C 188.05 349.18 184.08 354.76 179.32 360.48
  C 171.04 370.43 162.36 379.23 153.25 388.59
  Q 149.74 392.19 146.90 396.85
  Q 145.22 399.60 146.84 402.64
  Q 149.96 408.47 154.99 413.77
  Q 170.70 430.31 190.26 446.59
  C 196.63 451.88 206.25 458.40 214.18 455.05
  C 223.90 450.94 226.64 438.28 228.47 427.85
  Q 229.93 419.48 232.77 414.89
  Q 239.75 403.59 252.33 406.40
  C 258.19 407.71 263.06 411.67 267.00 416.06
  Q 276.47 426.62 278.14 439.04
  C 278.88 444.54 276.18 452.03 271.97 455.70
  Q 270.55 456.94 268.51 457.12
  Q 256.77 458.18 249.64 459.63
  C 234.34 462.74 229.32 479.84 238.87 491.60
  C 246.73 501.27 256.88 510.55 266.37 519.61
  Q 274.58 527.45 286.70 536.80
  Q 289.31 538.81 294.60 545.09
  Q 298.72 549.99 302.80 553.95
  Q 317.56 568.31 331.46 581.32
  Q 340.13 589.43 342.47 600.37
  C 344.61 610.33 340.22 614.07 331.15 615.96
  Q 322.74 617.72 315.49 619.66
  C 308.83 621.44 298.47 625.46 296.93 632.96
  C 296.12 636.91 297.94 642.72 298.95 646.73
  Q 300.81 654.14 305.99 661.71
  C 312.35 671.02 321.22 675.89 332.46 674.62
  C 353.08 672.30 351.73 651.25 360.17 637.62
  Q 367.53 625.72 380.76 633.70
  Q 387.78 637.94 394.14 644.18
  Q 408.19 657.98 419.69 670.38
  C 422.78 673.72 428.34 678.82 433.11 675.81
  C 439.20 671.96 444.77 667.71 450.19 662.58
  C 460.93 652.40 471.58 641.98 477.91 628.11
  C 481.51 620.21 485.69 610.56 477.82 603.51
  C 471.75 598.08 463.71 596.58 455.62 595.34
  C 451.11 594.64 445.33 592.25 442.10 589.16
  C 434.41 581.79 436.93 569.52 442.72 561.67
  Q 446.57 556.44 450.58 553.63
  Q 459.22 547.57 469.81 551.37
  C 476.11 553.64 479.62 559.65 481.25 565.85
  C 484.16 576.94 488.48 584.95 498.30 591.86
  Q 506.10 597.36 514.59 594.77
  Q 518.71 593.51 524.56 588.22
  C 537.53 576.49 549.94 564.30 561.74 551.74
  Q 566.92 546.22 573.23 540.95
  Q 588.02 528.62 603.75 511.63
  C 609.64 505.28 615.87 499.32 624.75 497.63
  Q 629.10 496.79 632.86 498.10
  C 641.26 501.03 643.33 508.98 643.26 517.02
  C 643.17 527.16 647.82 535.85 656.65 540.34
  C 664.67 544.42 674.92 544.29 683.13 540.53
  C 691.53 536.69 698.50 529.64 703.03 521.49
  C 706.35 515.53 707.30 506.23 704.13 500.48
  Q 700.65 494.17 693.43 491.65
  Q 685.81 488.98 677.76 487.51
  Q 669.30 485.97 665.26 483.31
  Q 659.06 479.24 657.43 470.77
  C 656.30 464.87 658.93 463.07 663.35 458.81
  Q 682.06 440.77 701.47 423.50
  C 703.63 421.58 705.44 419.50 707.03 417.07
  A 2.73 2.72 44.9 0 0 707.02 414.09
  Q 699.98 403.39 692.40 393.05
  C 683.18 380.49 671.39 367.52 657.52 359.74
  C 648.51 354.68 637.63 357.14 633.34 367.02
  Q 629.08 376.84 627.23 387.61
  Q 626.76 390.33 625.85 392.87
  C 623.48 399.43 616.84 402.22 609.68 403.19
  C 598.54 404.70 586.85 397.95 580.79 388.75
  Q 574.99 379.93 577.71 369.31
  C 579.25 363.30 581.09 357.54 588.26 356.53
  C 598.94 355.02 609.56 354.18 619.51 349.33
  Q 624.15 347.06 626.78 343.14
  Q 628.71 340.26 628.00 336.39"
/>
<path stroke="#8f8f9d" vector-effect="non-scaling-stroke" d="
  M 577.75 858.90
  Q 579.68 853.86 583.74 848.97
  C 596.21 833.98 612.17 823.21 630.59 814.26
  Q 651.33 804.18 671.67 795.89
  Q 697.46 785.39 712.05 777.31
  Q 723.53 770.94 741.07 759.18
  Q 752.57 751.47 760.30 744.85
  Q 769.03 737.36 780.42 725.36
  C 794.80 710.19 805.24 692.83 815.84 673.92
  Q 820.16 666.23 830.56 639.96
  Q 835.56 627.35 841.09 612.20
  Q 845.63 599.75 849.07 589.12
  C 850.79 583.78 853.15 578.23 854.87 572.79
  Q 861.21 552.76 867.12 529.68
  C 867.49 528.24 868.10 526.98 868.37 525.51
  Q 869.79 517.65 871.45 510.88
  Q 875.14 495.79 877.22 476.32
  Q 879.24 457.45 877.36 440.22
  C 876.06 428.25 872.25 414.72 860.76 409.82
  C 857.56 408.45 853.70 408.05 850.19 407.61
  C 846.05 407.08 839.09 407.88 834.67 410.23
  Q 832.76 411.24 830.72 412.16
  Q 830.24 412.37 829.78 412.11
  Q 828.22 411.21 828.32 409.23
  Q 828.85 398.73 827.48 387.18
  C 826.21 376.59 822.34 365.22 812.64 359.96
  C 802.34 354.37 789.55 356.79 780.39 363.62
  C 772.68 369.37 768.22 379.54 765.67 388.47
  Q 763.56 395.81 762.18 405.92
  C 761.15 413.47 761.45 420.67 761.28 428.21
  A 3.49 3.47 66.9 0 1 760.38 430.47
  C 757.09 434.12 753.70 437.71 751.14 441.83
  Q 746.65 449.04 744.00 458.03
  Q 740.52 469.87 739.23 480.98
  C 738.98 483.15 738.26 485.62 736.32 486.83
  C 720.52 496.71 717.46 518.05 714.07 535.21
  C 712.87 541.27 712.68 547.24 711.97 553.33
  C 710.71 564.14 711.17 575.82 711.43 586.63
  C 711.66 596.42 707.87 604.35 703.00 612.96
  C 696.24 624.90 686.59 633.05 674.97 640.33
  Q 646.51 658.19 620.03 670.92
  C 609.10 676.17 597.89 680.47 586.72 685.02
  C 574.91 689.84 562.86 695.50 551.54 701.46
  Q 532.99 711.24 513.94 725.68
  C 503.42 733.67 494.41 743.34 485.55 753.33
  C 472.27 768.31 461.72 786.04 453.51 804.15
  C 449.88 812.16 447.07 821.06 444.22 829.63
  Q 443.79 830.93 442.83 831.43
  Q 441.53 832.10 441.12 830.71
  C 437.66 819.15 434.27 807.96 429.14 797.33
  C 421.74 782.01 413.44 767.98 402.49 754.76
  C 392.84 743.10 382.53 731.89 370.79 722.77
  Q 355.02 710.52 338.06 700.60
  Q 334.57 698.55 330.66 696.66
  C 324.25 693.56 317.88 690.46 311.27 687.78
  C 278.97 674.67 249.10 660.41 219.19 643.33
  C 211.56 638.97 205.01 634.21 197.95 628.52
  Q 185.06 618.13 178.76 604.81
  C 175.04 596.94 172.64 590.37 172.85 581.51
  C 173.16 567.65 173.39 553.75 171.64 540.47
  C 169.13 521.46 165.29 493.69 146.92 482.76
  Q 146.48 482.50 146.32 482.01
  Q 145.40 479.29 145.02 476.70
  Q 143.84 468.56 142.33 461.51
  Q 140.39 452.43 135.58 442.74
  Q 131.60 434.71 123.99 427.54
  C 123.21 426.80 122.57 425.48 122.62 424.37
  Q 123.35 408.44 120.78 393.03
  C 118.51 379.47 111.96 363.95 99.26 357.28
  C 86.68 350.68 68.69 352.43 61.75 366.52
  Q 58.41 373.31 57.11 381.36
  Q 55.13 393.66 55.89 406.57
  A 1.75 1.75 0.0 0 1 53.34 408.23
  Q 47.15 405.03 41.35 404.13
  C 33.55 402.93 22.00 404.76 16.29 411.14
  C 11.10 416.94 8.99 424.94 7.51 432.46
  Q 6.49 437.69 6.38 444.61
  Q 6.14 460.03 6.67 469.15
  Q 7.09 476.22 10.21 495.90
  C 10.96 500.67 12.23 505.34 13.18 510.09
  Q 14.12 514.83 15.52 520.31
  Q 23.72 552.46 31.81 576.71
  Q 33.05 580.42 37.73 593.77
  Q 47.25 620.95 59.08 649.44
  Q 64.57 662.67 69.56 672.14
  Q 74.10 680.78 83.34 695.14
  Q 91.95 708.52 103.14 720.87
  C 107.97 726.21 113.57 731.21 118.74 736.23
  C 133.68 750.73 151.55 762.56 170.40 772.24
  C 177.16 775.72 184.94 778.43 191.98 781.50
  Q 215.46 791.75 239.66 802.36
  C 246.82 805.50 253.28 809.19 260.67 813.10
  Q 277.07 821.75 291.16 834.78
  C 296.38 839.60 301.48 845.56 304.84 851.32
  Q 307.05 855.09 309.44 858.26
  Q 310.84 860.12 308.51 860.01
  Q 306.52 859.91 304.67 859.64
  Q 302.09 859.27 304.00 861.04
  Q 305.12 862.09 306.63 862.58
  Q 314.84 865.28 322.54 867.78
  C 326.37 869.03 330.35 869.55 334.20 870.75
  C 339.94 872.53 345.64 873.32 351.37 874.70
  C 357.83 876.26 364.42 876.98 370.80 878.27
  Q 376.66 879.47 382.33 880.02
  Q 390.67 880.84 399.43 881.99
  C 408.42 883.16 417.30 883.39 426.25 883.70
  C 428.75 883.79 430.85 882.26 432.97 881.12
  C 436.68 879.11 441.18 880.07 445.16 881.13
  C 448.03 881.90 450.74 881.16 453.65 881.05
  Q 458.44 880.86 461.51 883.21
  Q 461.94 883.54 462.49 883.53
  Q 474.65 883.32 478.63 882.85
  Q 491.88 881.30 505.03 879.85
  Q 510.30 879.26 515.32 878.23
  C 521.71 876.91 528.24 876.23 534.62 874.69
  C 539.11 873.61 543.86 873.06 548.28 871.70
  Q 550.50 871.02 552.81 870.31
  Q 553.35 870.14 553.64 869.66
  C 554.20 868.77 554.03 867.87 554.87 867.05
  Q 556.40 865.55 557.79 865.27
  Q 562.17 864.39 566.36 863.23
  A 1.53 1.52 -17.0 0 1 568.21 864.21
  C 568.87 866.14 571.42 865.48 572.79 865.04
  Q 584.47 861.30 594.75 857.72
  Q 602.43 855.05 612.86 850.41
  Q 625.97 844.57 639.01 838.98
  Q 639.31 838.86 638.99 838.79
  Q 638.80 838.74 638.61 838.81
  C 631.63 841.54 624.61 844.53 617.56 847.00
  Q 611.41 849.15 605.54 851.42
  C 597.58 854.50 590.14 856.62 582.26 858.85
  Q 580.31 859.41 578.21 859.52
  Q 577.50 859.56 577.75 858.90"
/>
<path stroke="#8b1f2a" vector-effect="non-scaling-stroke" d="
  M 416.91 216.42
  C 420.61 222.37 423.23 229.67 421.43 236.49
  Q 420.16 241.31 417.10 247.22
  C 410.69 259.58 397.32 267.07 383.54 266.05
  C 374.83 265.40 367.26 259.54 363.20 251.78
  Q 359.30 244.35 357.38 237.16
  Q 355.78 231.21 354.20 225.49
  Q 353.10 221.51 350.58 218.46
  C 345.36 212.11 335.81 214.34 330.18 219.00
  Q 320.63 226.89 311.29 236.59
  Q 297.43 251.00 286.90 262.99
  Q 285.62 264.45 284.58 266.30
  A 1.23 1.22 -54.1 0 0 284.82 267.82
  Q 288.27 271.00 291.82 273.64
  C 303.82 282.60 314.62 293.65 324.39 304.84
  Q 330.00 311.27 332.42 316.23
  C 337.59 326.82 338.83 340.13 327.25 346.68
  Q 320.74 350.36 313.85 350.44
  Q 305.88 350.53 299.52 351.49
  C 293.60 352.39 288.70 356.04 288.47 362.65
  C 288.21 370.60 289.84 377.25 296.11 382.77
  C 304.96 390.56 315.28 393.32 326.71 394.76
  Q 328.97 395.04 331.01 394.37
  Q 331.50 394.21 331.82 393.81
  Q 334.93 390.00 336.18 385.51
  Q 338.66 376.55 340.37 368.53
  C 342.11 360.39 346.11 354.56 354.00 351.87
  C 365.55 347.94 376.94 354.53 384.68 362.93
  Q 400.74 380.36 417.78 397.04
  C 419.11 398.34 421.08 400.06 423.05 399.53
  Q 425.16 398.95 427.14 397.85
  C 434.95 393.51 442.27 388.51 448.51 382.20
  Q 458.15 372.45 465.38 362.90
  C 470.74 355.82 472.01 346.24 464.93 339.64
  C 463.19 338.03 460.68 336.90 458.47 336.06
  C 452.44 333.77 445.55 332.28 440.00 329.47
  C 430.44 324.64 422.20 319.75 419.31 309.32
  C 417.57 303.03 419.68 296.65 422.94 291.13
  C 427.51 283.39 436.82 277.99 445.49 275.62
  Q 454.44 273.16 459.54 273.18
  C 473.75 273.25 482.08 282.37 485.44 296.11
  Q 487.37 304.02 489.10 311.70
  C 491.12 320.69 497.34 326.18 506.61 321.40
  Q 514.69 317.23 520.04 313.20
  C 533.17 303.31 544.73 290.18 556.41 278.17
  Q 561.02 273.43 555.91 268.85
  Q 532.05 247.41 515.40 231.37
  Q 508.41 224.63 505.62 213.79
  C 503.23 204.50 509.97 190.27 520.76 189.05
  Q 529.83 188.02 538.36 186.95
  Q 547.36 185.82 550.65 183.50
  Q 556.18 179.60 555.91 171.12
  Q 555.25 150.70 539.43 141.21
  Q 532.68 137.17 527.28 136.93
  C 522.66 136.72 513.07 138.37 511.44 143.74
  Q 508.19 154.41 505.34 166.87
  C 503.75 173.81 499.37 184.14 491.73 186.30
  C 485.04 188.19 476.62 186.73 471.61 183.10
  Q 465.80 178.89 460.48 174.57
  C 453.29 168.72 447.02 161.66 440.25 155.25
  C 435.47 150.74 431.01 145.90 426.41 141.06
  C 423.70 138.22 419.11 134.98 415.09 136.12
  Q 412.07 136.97 409.13 139.30
  C 402.50 144.57 396.78 151.04 390.62 156.76
  Q 383.75 163.15 376.81 169.65
  Q 372.31 173.86 368.45 179.98
  C 362.02 190.17 368.98 198.69 378.98 201.15
  Q 385.65 202.80 394.12 203.71
  C 402.95 204.66 412.17 208.79 416.91 216.42"
/>
<path stroke="#27693d" vector-effect="non-scaling-stroke" d="
  M 239.89 476.51
  C 238.63 484.79 247.09 493.15 252.62 498.61
  Q 264.67 510.52 275.67 520.56
  Q 280.70 525.15 286.18 529.12
  A 3.45 3.44 49.4 0 0 289.77 529.40
  Q 293.71 527.41 297.21 524.43
  C 310.25 513.30 321.24 501.49 331.79 488.40
  C 333.83 485.86 336.54 482.46 337.49 479.36
  C 338.12 477.31 336.74 475.51 334.74 475.06
  Q 321.76 472.13 310.76 470.80
  C 291.80 468.52 292.23 444.98 299.08 432.77
  C 306.01 420.40 319.60 413.11 333.70 413.66
  Q 346.05 414.14 350.55 424.95
  Q 353.00 430.82 354.10 438.29
  C 354.84 443.36 356.63 448.09 358.47 452.90
  C 359.38 455.28 361.47 458.26 364.40 456.65
  Q 369.07 454.11 373.75 450.25
  Q 390.52 436.43 406.11 420.13
  Q 410.37 415.68 414.51 410.66
  Q 416.23 408.59 415.64 406.54
  C 414.56 402.78 410.54 399.06 407.76 396.27
  Q 393.45 381.89 380.08 367.33
  C 374.44 361.19 369.38 357.24 361.05 357.03
  C 352.85 356.83 348.10 363.01 347.00 370.56
  C 346.05 377.10 344.68 383.68 342.49 389.83
  C 338.65 400.59 329.71 403.74 318.98 401.42
  C 297.42 396.78 272.58 379.10 283.62 353.54
  C 288.73 341.70 305.52 343.41 315.65 343.14
  C 321.40 342.99 328.71 340.10 328.94 333.23
  C 329.22 324.88 324.08 315.60 318.91 309.21
  Q 312.18 300.88 303.33 291.94
  C 296.77 285.31 290.03 280.08 282.92 274.31
  Q 280.87 272.65 278.47 271.86
  Q 277.99 271.70 277.52 271.87
  Q 275.44 272.60 274.35 273.61
  Q 264.62 282.60 253.47 293.93
  C 245.34 302.20 234.77 312.04 223.47 315.42
  C 209.75 319.52 202.08 306.20 197.90 295.76
  Q 193.52 284.81 189.32 273.77
  Q 187.58 269.19 183.52 267.87
  Q 179.45 266.55 175.32 266.82
  C 165.34 267.48 154.64 270.44 148.22 278.22
  C 144.14 283.17 143.00 287.86 142.93 294.19
  C 142.87 300.30 144.00 305.41 149.02 309.25
  Q 154.33 313.31 160.70 315.02
  Q 169.03 317.26 177.25 319.53
  C 183.02 321.11 189.40 324.21 192.21 329.55
  Q 196.57 337.80 194.33 346.30
  C 192.24 354.24 187.26 361.10 181.74 367.42
  C 173.81 376.49 164.53 385.06 156.56 393.63
  Q 153.52 396.90 153.01 398.96
  C 152.34 401.66 155.39 405.06 157.15 406.97
  Q 172.43 423.58 194.88 442.11
  C 198.67 445.24 209.79 453.18 214.77 448.00
  Q 216.69 446.00 217.65 443.11
  Q 219.26 438.24 221.15 433.75
  C 222.95 429.47 223.62 424.85 224.56 420.17
  Q 225.95 413.19 232.32 406.37
  C 240.01 398.14 252.70 397.84 261.87 403.96
  C 276.84 413.96 290.89 437.73 279.94 455.69
  Q 275.39 463.14 268.09 463.39
  Q 259.91 463.68 251.97 465.08
  C 245.27 466.27 240.98 469.38 239.89 476.51"
/>
<path stroke="#293466" vector-effect="non-scaling-stroke" d="
  M 652.31 464.51
  C 652.51 462.77 653.92 461.37 655.12 460.21
  Q 665.33 450.37 675.68 440.41
  C 682.08 434.25 688.58 428.89 695.30 423.24
  Q 697.91 421.05 700.34 417.92
  A 2.55 2.51 -28.2 0 0 700.87 416.21
  Q 700.72 413.41 699.26 411.18
  Q 688.41 394.55 673.74 378.97
  Q 670.40 375.41 667.10 372.73
  C 662.58 369.03 657.41 365.26 651.62 363.97
  Q 642.68 361.99 639.25 370.10
  C 636.55 376.51 635.06 383.03 633.66 389.84
  C 632.52 395.43 629.85 399.61 625.89 403.71
  Q 623.01 406.69 618.12 407.98
  C 608.17 410.61 598.02 409.97 589.30 404.53
  C 580.22 398.85 573.82 392.10 572.23 380.99
  C 571.46 375.57 571.38 369.40 572.90 364.07
  C 574.77 357.47 579.43 351.70 586.67 350.93
  Q 597.75 349.75 610.84 346.81
  C 615.45 345.78 621.72 341.49 621.95 336.38
  C 622.14 332.36 619.70 328.49 616.96 325.43
  Q 603.00 309.81 593.35 301.51
  Q 587.84 296.78 582.41 291.64
  Q 580.46 289.80 572.72 284.85
  C 568.82 282.36 564.71 280.07 560.94 283.78
  Q 554.16 290.47 546.78 298.52
  Q 538.84 307.17 527.90 315.70
  Q 520.57 321.41 512.72 325.22
  Q 504.34 329.30 497.69 328.91
  C 490.07 328.47 484.39 323.03 482.19 315.58
  Q 481.34 312.70 480.69 310.18
  Q 478.54 301.86 476.63 292.91
  C 475.43 287.34 471.27 281.23 465.45 280.16
  C 456.00 278.42 445.94 281.83 437.77 286.93
  Q 430.34 291.56 426.52 299.21
  Q 423.76 304.75 427.21 310.50
  C 430.84 316.56 434.35 319.47 441.30 322.24
  Q 450.01 325.72 457.94 328.64
  Q 463.25 330.59 467.64 333.00
  C 473.08 335.99 475.69 341.58 476.78 347.44
  Q 477.58 351.73 475.90 357.07
  Q 472.75 367.06 466.27 373.82
  C 454.83 385.74 442.89 395.25 429.89 404.82
  Q 426.23 407.51 429.18 410.77
  C 438.86 421.49 449.40 431.65 459.43 441.46
  Q 464.10 446.03 471.13 451.41
  C 476.59 455.59 481.53 459.46 488.01 453.35
  Q 490.85 450.67 492.67 446.02
  Q 497.46 433.74 501.38 422.76
  Q 504.48 414.06 511.70 410.96
  Q 520.12 407.36 530.05 408.80
  C 542.74 410.63 553.82 420.68 557.69 432.73
  Q 559.68 438.94 559.25 447.90
  C 558.80 457.23 553.16 465.37 544.03 467.49
  Q 536.93 469.13 529.98 470.88
  Q 522.56 472.74 517.01 475.77
  C 506.74 481.39 510.09 490.42 516.39 497.09
  C 531.01 512.57 545.65 528.09 562.76 540.40
  A 1.55 1.54 51.2 0 0 564.27 540.57
  Q 566.75 539.55 569.07 537.73
  Q 576.31 532.04 584.86 523.48
  C 591.73 516.61 598.46 510.29 605.34 503.59
  C 613.34 495.82 621.14 491.53 632.88 493.20
  C 638.53 494.00 643.71 499.34 646.07 504.09
  Q 647.75 507.48 647.95 512.31
  C 648.26 519.93 650.09 530.86 657.46 535.13
  Q 661.80 537.65 665.87 537.91
  Q 684.83 539.16 695.58 524.29
  C 699.14 519.37 701.56 514.94 701.00 508.56
  Q 700.52 503.02 695.87 499.27
  Q 691.36 495.62 687.39 494.70
  C 679.71 492.91 671.28 492.19 664.13 488.47
  Q 655.24 483.85 652.84 472.27
  Q 651.93 467.84 652.31 464.51"
/>
<path stroke="#8e4f29" vector-effect="non-scaling-stroke" d="
  M 460.67 543.79
  C 467.37 542.76 474.44 545.20 479.77 549.66
  Q 484.73 553.81 486.38 560.42
  Q 488.36 568.38 491.71 575.36
  Q 495.70 583.69 504.50 587.77
  C 511.77 591.14 517.95 585.91 523.10 581.19
  Q 541.66 564.21 556.77 547.38
  A 0.73 0.71 52.1 0 0 556.86 546.56
  Q 555.93 544.84 554.45 543.51
  Q 535.21 526.19 517.62 508.64
  Q 511.09 502.12 505.95 492.51
  C 504.35 489.52 503.64 486.52 503.52 483.14
  C 503.11 472.03 515.71 467.38 524.37 464.84
  Q 528.12 463.75 532.53 463.00
  C 541.58 461.48 552.53 455.63 553.33 445.61
  Q 554.05 436.48 548.43 427.69
  C 541.73 417.21 528.50 412.63 516.72 415.64
  Q 510.56 417.22 507.52 423.57
  C 504.49 429.91 503.10 437.18 501.39 443.96
  C 499.56 451.21 495.85 458.03 488.41 460.41
  C 474.90 464.73 464.06 456.07 454.74 446.53
  Q 439.76 431.18 423.80 414.87
  A 1.94 1.94 0.0 0 0 421.26 414.66
  Q 419.45 415.98 417.90 417.52
  C 408.06 427.28 397.96 436.13 387.96 446.21
  Q 382.05 452.18 375.59 457.68
  C 370.91 461.67 363.21 465.82 357.42 462.00
  C 353.50 459.41 351.95 454.77 350.79 450.33
  Q 347.98 439.50 346.06 430.12
  Q 345.49 427.32 343.90 424.65
  C 341.21 420.13 333.44 419.30 328.73 419.78
  Q 311.79 421.53 305.01 434.97
  Q 302.68 439.59 302.24 444.22
  C 301.54 451.59 300.44 463.18 310.61 464.73
  Q 317.66 465.80 325.69 466.78
  C 330.51 467.36 346.59 471.23 345.01 478.53
  Q 344.28 481.92 342.01 485.77
  C 338.62 491.51 334.96 496.28 329.80 501.26
  Q 323.03 507.80 316.21 514.81
  C 309.74 521.46 302.66 527.93 296.20 534.45
  A 2.08 2.08 0.0 0 0 295.99 537.15
  C 297.89 539.76 299.89 542.44 302.12 544.60
  Q 321.82 563.72 334.38 574.95
  Q 348.12 587.22 349.32 603.75
  C 349.98 612.74 344.97 619.54 336.38 621.80
  C 330.56 623.33 324.47 623.81 318.88 625.39
  Q 314.41 626.66 309.56 628.67
  C 305.91 630.19 302.67 632.98 303.04 637.24
  Q 304.49 654.20 317.99 665.12
  C 323.81 669.84 335.94 670.03 341.04 663.97
  C 345.49 658.67 348.19 651.65 350.33 645.15
  C 352.59 638.27 355.66 630.42 361.87 626.67
  C 368.70 622.54 378.87 624.48 385.31 628.60
  Q 389.67 631.39 393.99 635.67
  C 404.23 645.79 414.10 655.11 424.00 666.22
  C 426.01 668.48 429.62 671.62 432.89 669.09
  C 449.32 656.39 465.77 641.55 473.79 621.84
  C 475.67 617.20 477.03 610.21 472.15 606.85
  C 469.60 605.09 466.74 604.14 463.66 603.52
  Q 453.18 601.44 445.54 598.91
  Q 435.62 595.62 433.04 585.14
  C 429.88 572.33 433.77 561.03 443.21 551.84
  Q 449.76 545.47 460.67 543.79"
/>
<path stroke="#775b5b" vector-effect="non-scaling-stroke" d="
  M 16.51 418.52
  Q 11.99 434.08 10.86 440.72
  Q 9.31 449.80 10.70 464.27
  Q 11.93 476.98 13.95 489.45
  Q 16.48 505.12 22.88 531.40
  C 24.62 538.58 26.99 546.31 29.07 553.66
  Q 31.30 561.55 34.28 570.10
  Q 41.03 589.51 46.99 605.89
  Q 53.09 622.69 61.64 644.29
  C 70.83 667.50 83.32 689.24 98.82 708.69
  Q 104.48 715.79 112.40 723.47
  Q 121.40 732.19 130.75 740.14
  Q 135.78 744.41 140.82 747.81
  Q 161.04 761.47 183.83 771.90
  C 190.19 774.81 196.20 778.20 202.45 780.98
  Q 210.00 784.33 216.07 786.93
  Q 234.13 794.67 251.95 802.27
  Q 269.46 809.74 286.76 823.86
  Q 301.91 836.22 310.62 851.04
  C 311.79 853.04 313.58 854.74 315.67 855.60
  Q 328.39 860.84 348.28 868.57"
/>
<path stroke="#866e70" vector-effect="non-scaling-stroke" d="
  M 348.28 868.57
  C 355.58 870.46 362.85 872.29 370.29 873.31
  Q 378.49 874.44 386.53 875.65
  Q 396.32 877.12 414.65 876.64
  C 421.31 876.46 427.27 874.45 433.69 872.65
  C 435.58 872.12 436.07 870.81 436.34 869.01
  Q 437.74 859.74 435.86 850.46
  Q 433.03 836.54 429.08 823.90
  Q 416.95 785.13 390.53 754.47
  Q 381.41 743.89 373.81 736.99
  Q 357.32 722.02 336.62 709.61
  C 331.64 706.63 326.35 704.02 321.10 701.20
  Q 311.43 695.99 296.04 689.96
  Q 278.12 682.93 259.85 674.45
  Q 251.19 670.43 242.47 665.71
  Q 229.03 658.44 218.92 652.33
  Q 203.02 642.72 195.33 636.67
  Q 187.65 630.62 180.44 624.91"
/>
<path stroke="#8f8f9d" vector-effect="non-scaling-stroke" d="
  M 180.44 624.91
  Q 173.90 618.29 170.99 613.52
  Q 167.81 608.30 164.93 604.38
  Q 156.91 593.49 146.57 587.75
  Q 135.88 581.82 131.02 580.53
  Q 127.87 579.69 125.63 580.55"
/>
<path stroke="#866e70" vector-effect="non-scaling-stroke" d="
  M 125.63 580.55
  C 121.68 580.19 114.16 579.95 111.96 583.98
  C 108.03 591.16 105.81 598.13 107.50 606.28
  C 110.26 619.56 113.46 632.85 118.85 644.97
  C 126.46 662.09 135.91 676.39 148.89 688.88
  Q 154.22 694.01 159.70 699.13"
/>
<path stroke="#775b5b" vector-effect="non-scaling-stroke" d="
  M 159.70 699.13
  Q 136.08 686.19 123.31 662.75"
/>
<path stroke="#866e70" vector-effect="non-scaling-stroke" d="
  M 123.31 662.75
  Q 111.95 645.70 107.22 632.00
  Q 102.18 617.43 101.92 602.00
  Q 101.74 591.63 106.58 582.66
  C 107.79 580.41 109.55 578.58 110.84 576.40
  Q 111.51 575.26 110.92 574.08
  C 109.44 571.07 107.37 568.65 105.85 565.72
  Q 96.54 547.73 87.98 527.64
  Q 87.38 526.22 87.52 524.73
  Q 87.59 524.04 87.80 524.70
  C 88.47 526.86 89.77 528.61 90.74 530.69
  Q 96.83 543.78 104.01 557.20
  C 106.96 562.73 110.52 567.34 113.94 572.43
  C 116.39 576.07 119.60 577.52 123.86 576.28
  Q 125.68 575.75 125.01 573.98
  C 120.23 561.38 116.54 548.37 112.96 535.39
  Q 111.63 530.57 110.89 526.55
  C 109.53 519.18 107.46 511.83 106.53 504.40
  Q 103.78 482.57 105.92 461.64
  Q 106.53 455.70 109.69 444.74
  Q 111.78 437.49 112.54 425.74"
/>
<path stroke="#775b5b" vector-effect="non-scaling-stroke" d="
  M 112.54 425.74
  Q 112.69 425.25 112.92 425.15
  Q 113.04 425.10 113.13 425.18
  Q 113.18 425.22 113.23 425.23
  Q 113.29 425.25 113.30 425.18
  Q 114.24 416.41 112.88 407.99"
/>
<path stroke="#866e70" vector-effect="non-scaling-stroke" d="
  M 112.88 407.99
  C 112.46 399.86 111.48 390.47 108.05 383.00
  C 105.34 377.09 103.07 372.19 98.79 367.93
  Q 91.77 360.94 82.08 360.81
  Q 69.94 360.66 64.85 371.91
  C 60.62 381.24 60.05 392.24 60.24 402.27
  Q 60.52 416.78 62.85 430.92
  Q 63.82 436.83 64.57 442.22
  Q 65.34 447.80 66.62 453.03
  C 68.00 458.69 68.74 464.42 70.46 469.87
  Q 72.50 476.34 73.78 482.22
  Q 75.18 488.66 77.49 496.21
  Q 77.77 497.12 77.69 498.06
  Q 77.61 498.86 77.30 498.13
  Q 70.89 483.19 69.45 478.76
  Q 63.64 460.85 60.61 442.68
  C 58.79 431.76 55.10 419.87 45.71 413.56
  Q 42.72 411.55 39.23 411.23
  Q 26.42 410.07 16.51 418.52"
/>
<path stroke="#dfaa90" vector-effect="non-scaling-stroke" d="
  M 112.88 407.99
  L 112.54 425.74"
/>
<path stroke="#dfaa90" vector-effect="non-scaling-stroke" d="
  M 123.31 662.75
  Q 123.22 663.03 123.04 663.23
  A 0.38 0.38 0.0 0 1 122.49 663.25
  L 122.26 663.02
  Q 122.04 662.80 121.74 662.87
  Q 118.51 663.68 116.75 661.66
  Q 107.52 651.01 98.82 638.43
  Q 87.99 622.77 76.25 602.11
  Q 59.95 573.44 52.46 552.57
  C 48.82 542.42 44.64 531.90 41.53 521.03
  Q 39.37 513.52 37.30 505.95
  Q 35.33 498.72 33.22 490.98
  Q 31.24 483.71 29.62 475.92
  Q 25.40 455.59 22.08 434.50
  Q 21.08 428.16 16.51 418.52"
/>
<path stroke="#dfaa90" vector-effect="non-scaling-stroke" d="
  M 159.70 699.13
  Q 165.12 701.35 167.85 703.40
  C 170.68 705.52 173.00 708.31 175.25 711.02
  C 177.80 714.08 181.21 716.27 184.97 717.58
  Q 205.80 724.82 226.17 735.45
  C 233.47 739.25 240.39 743.65 247.55 747.92
  C 263.81 757.64 279.17 769.43 293.46 782.23
  Q 308.38 795.60 318.45 808.41
  Q 331.81 825.39 343.26 844.96
  C 346.58 850.63 350.07 857.64 349.91 864.19
  Q 349.88 865.29 349.32 866.44
  Q 348.78 867.51 348.28 868.57"
/>
<path stroke="#f7ded2" vector-effect="non-scaling-stroke" d="
  M 125.63 580.55
  Q 115.37 590.67 114.08 602.51
  Q 112.83 613.90 117.90 623.61
  Q 125.50 638.18 138.09 650.50
  C 142.57 654.88 145.70 658.90 151.65 652.90
  Q 163.17 641.25 175.02 629.27
  Q 177.88 626.38 180.44 624.91"
/>
<path stroke="#775b5b" vector-effect="non-scaling-stroke" d="
  M 760.64 668.27
  Q 752.63 680.28 743.28 689.05
  Q 736.68 695.24 727.48 700.22"
/>
<path stroke="#866e70" vector-effect="non-scaling-stroke" d="
  M 727.48 700.22
  Q 739.23 689.02 743.91 683.42
  Q 760.26 663.81 769.58 640.19
  Q 774.34 628.13 775.94 613.70
  Q 777.18 602.55 775.58 594.27
  C 774.38 588.03 770.82 584.04 764.26 583.49
  Q 759.66 583.10 755.52 583.88"
/>
<path stroke="#8f8f9d" vector-effect="non-scaling-stroke" d="
  M 755.52 583.88
  Q 736.95 588.54 723.72 602.34
  Q 721.05 605.13 717.07 611.30
  Q 711.65 619.70 704.94 627.28"
/>
<path stroke="#866e70" vector-effect="non-scaling-stroke" d="
  M 704.94 627.28
  Q 701.18 630.15 697.35 633.30
  Q 681.84 646.07 667.90 654.33
  C 657.21 660.66 645.98 667.65 634.61 672.84
  Q 610.10 684.03 585.00 694.73
  Q 581.00 696.44 576.71 698.38
  C 571.11 700.91 565.32 704.20 559.71 706.91
  Q 553.98 709.68 550.93 711.44
  Q 530.12 723.44 515.58 735.85
  Q 500.08 749.08 485.54 767.96
  C 475.11 781.50 466.54 797.32 460.51 812.86
  Q 455.05 826.93 451.37 842.15
  C 449.32 850.62 448.21 858.98 446.54 867.63
  Q 446.10 869.90 446.03 872.01
  Q 446.00 873.19 446.99 873.84
  Q 452.54 877.47 459.48 877.52
  Q 476.99 877.63 494.63 876.26
  C 501.98 875.69 509.51 874.23 516.98 873.29
  C 523.27 872.50 529.31 871.07 535.55 869.67"
/>
<path stroke="#775b5b" vector-effect="non-scaling-stroke" d="
  M 535.55 869.67
  Q 544.37 869.10 552.52 866.29
  Q 560.70 863.47 570.00 858.12
  Q 573.03 856.37 574.53 853.88
  Q 581.10 842.95 588.53 835.57
  Q 601.10 823.07 620.86 811.36
  Q 625.13 808.83 630.31 806.47
  C 649.46 797.73 668.93 790.66 687.78 781.76
  Q 699.01 776.46 709.37 771.35
  Q 727.60 762.37 744.85 750.35
  Q 752.71 744.88 760.06 738.15
  C 770.06 729.00 780.26 719.38 788.32 708.76
  C 799.83 693.59 810.28 676.23 817.36 660.65
  Q 822.50 649.35 827.13 637.23
  Q 839.77 604.13 850.21 572.43
  C 851.43 568.72 853.17 565.03 854.25 561.41
  Q 857.33 551.06 860.31 540.67
  C 861.58 536.22 862.30 531.92 863.49 527.65
  Q 864.84 522.82 865.85 517.79
  Q 870.52 494.54 872.46 478.97
  C 874.05 466.22 874.84 453.31 872.70 440.27
  Q 872.33 438.01 870.77 432.35
  Q 869.76 428.71 868.94 424.37"
/>
<path stroke="#866e70" vector-effect="non-scaling-stroke" d="
  M 868.94 424.37
  Q 865.10 419.27 857.34 416.13
  Q 852.30 414.08 846.54 414.27
  C 834.78 414.64 828.08 429.00 825.40 438.82
  C 823.97 444.07 822.20 453.58 820.95 460.80
  C 820.21 465.03 818.80 469.21 817.70 473.49
  Q 816.46 478.36 814.80 482.81
  Q 811.21 492.43 806.96 502.50
  Q 806.90 502.65 806.74 502.60
  L 806.73 502.60
  Q 806.54 502.53 806.59 502.34
  C 808.52 494.09 810.75 486.09 812.43 477.79
  Q 813.49 472.49 814.92 467.37
  C 817.01 459.86 818.05 452.35 819.61 444.76
  C 821.11 437.50 821.97 430.01 822.98 422.42
  Q 824.25 412.81 824.13 400.90
  Q 824.00 388.09 820.94 378.95
  C 818.75 372.39 813.79 365.66 806.51 364.65
  C 800.55 363.81 793.85 364.65 788.82 368.52
  Q 783.83 372.36 781.13 377.00
  Q 776.35 385.19 774.78 391.42
  C 773.48 396.56 772.07 401.66 771.61 407.13
  Q 770.14 424.42 772.16 436.43
  Q 773.30 443.22 775.69 452.63
  Q 778.00 461.73 778.79 468.49
  Q 780.74 485.07 778.47 501.89
  Q 777.47 509.24 775.66 519.35
  Q 774.04 528.42 772.08 536.39
  Q 767.12 556.46 759.30 576.87
  Q 758.64 578.59 760.31 579.36
  Q 762.71 580.47 766.19 579.20
  C 768.40 578.39 769.92 576.43 771.13 574.51
  C 775.09 568.28 779.25 562.40 782.77 555.81
  Q 790.94 540.52 797.42 525.09
  Q 797.89 523.97 798.07 522.77
  Q 798.09 522.62 798.23 522.55
  Q 798.36 522.49 798.52 522.55
  Q 798.75 522.65 798.76 522.90
  Q 798.80 524.63 798.14 526.33
  Q 789.24 549.27 780.24 566.04
  C 778.19 569.87 775.35 573.14 773.77 577.21
  Q 773.07 579.03 774.31 581.05
  C 776.66 584.87 779.19 588.16 780.41 592.66
  C 782.57 600.69 783.55 607.60 782.05 615.46
  Q 780.78 622.11 779.20 628.19
  C 778.30 631.64 776.68 634.85 775.53 638.21
  C 771.99 648.61 766.38 658.91 760.64 668.27"
/>
<path stroke="#dfaa90" vector-effect="non-scaling-stroke" d="
  M 868.94 424.37
  Q 868.05 430.22 864.22 430.70
  A 1.84 1.83 0.2 0 0 862.63 432.27
  Q 860.65 446.17 858.54 460.30
  C 857.79 465.29 856.58 470.02 855.75 474.98
  Q 854.84 480.39 853.26 486.09
  Q 849.46 499.86 845.66 514.22
  Q 840.61 533.27 829.58 561.31
  Q 823.85 575.89 819.25 584.53
  Q 809.95 602.02 800.69 618.42
  Q 792.13 633.58 777.12 653.45
  Q 772.34 659.79 768.02 666.41
  Q 765.78 669.83 761.50 669.99
  Q 761.00 670.01 760.84 669.54
  Q 760.62 668.89 760.64 668.27"
/>
<path stroke="#dfaa90" vector-effect="non-scaling-stroke" d="
  M 535.55 869.67
  Q 535.07 867.28 534.50 864.74
  Q 533.88 861.93 536.29 857.10
  C 542.63 844.39 550.34 831.84 559.21 820.37
  C 566.33 811.17 573.18 802.48 581.57 794.41
  Q 602.79 774.00 624.74 758.97
  C 633.42 753.02 642.41 748.01 651.34 742.64
  Q 659.96 737.46 668.92 733.30
  Q 681.47 727.48 695.09 722.16
  C 697.30 721.29 699.46 720.10 701.58 719.00
  C 705.43 717.00 708.75 713.73 712.11 710.97
  Q 714.83 708.73 718.81 706.26
  Q 723.38 703.43 727.48 700.22"
/>
<path stroke="#f7ded2" vector-effect="non-scaling-stroke" d="
  M 704.94 627.28
  Q 708.68 629.58 709.62 630.64
  Q 721.02 643.46 733.15 656.55
  C 735.53 659.11 738.43 660.76 741.48 658.17
  Q 758.28 643.93 766.89 626.05
  Q 770.91 617.71 770.17 610.00
  Q 769.29 600.98 765.23 594.91
  C 762.57 590.95 758.89 587.59 755.52 583.88"
/>
<path stroke="#866e70" vector-effect="non-scaling-stroke" d="
  M 143.23 542.51
  Q 142.82 558.10 143.58 573.24
  C 143.81 577.77 148.26 583.10 151.30 586.04
  Q 159.10 593.58 168.17 600.37
  Q 169.33 601.25 169.52 599.80
  Q 169.71 598.41 169.41 597.08
  C 168.27 591.87 167.33 586.68 167.55 581.31
  Q 168.42 560.55 166.47 540.78
  C 165.65 532.49 163.69 523.93 161.73 515.75
  Q 159.06 504.55 152.57 494.46
  Q 150.75 491.62 148.37 489.89
  A 2.56 2.55 -56.5 0 0 144.67 490.65
  Q 143.48 492.66 143.50 495.89
  Q 143.51 497.63 142.85 498.64
  Q 142.43 499.28 141.69 499.21
  A 1.18 1.17 -88.6 0 1 140.62 498.08
  C 140.16 482.56 139.55 469.56 135.47 455.29
  Q 132.68 445.54 127.48 438.59
  C 125.81 436.36 115.17 425.96 113.65 433.98
  C 112.40 440.56 112.03 447.20 111.41 453.89
  C 109.42 475.28 109.27 497.53 112.97 518.54
  Q 114.79 528.92 115.78 533.09
  Q 120.61 553.33 128.10 571.39
  C 130.03 576.04 134.09 577.40 138.78 577.57
  A 1.52 1.51 1.7 0 0 140.36 576.09
  Q 140.62 562.42 141.93 549.01
  Q 142.22 546.02 142.99 542.48
  Q 143.27 541.21 143.23 542.51"
/>
<path stroke="#866e70" vector-effect="non-scaling-stroke" d="
  M 741.70 533.85
  Q 741.89 533.87 741.88 534.07
  Q 741.69 536.06 741.77 538.19
  Q 742.34 552.38 743.37 567.11
  C 743.64 571.03 743.31 574.65 743.09 578.52
  Q 743.00 580.24 744.72 580.28
  C 750.81 580.41 754.36 579.03 756.77 573.19
  Q 765.36 552.34 769.62 530.84
  Q 770.99 523.95 772.10 515.09
  Q 773.53 503.64 773.83 498.76
  C 774.69 484.70 774.47 468.68 772.45 453.77
  Q 771.52 446.89 770.60 438.75
  C 770.45 437.43 770.03 434.90 768.49 434.14
  C 765.42 432.61 758.37 440.28 756.94 442.36
  Q 749.41 453.36 746.56 467.81
  Q 743.21 484.80 742.97 500.93
  Q 742.93 503.51 741.77 501.21
  Q 740.53 498.77 740.17 495.54
  Q 739.95 493.59 737.99 493.48
  Q 735.39 493.33 733.69 495.47
  Q 728.63 501.82 725.74 508.72
  Q 723.41 514.26 721.72 522.16
  Q 715.85 549.47 716.08 575.58
  Q 716.20 589.42 715.04 600.75
  Q 714.92 601.88 715.36 602.88
  Q 715.70 603.64 716.40 603.18
  C 726.17 596.73 735.09 589.22 740.32 578.86
  C 741.09 577.35 741.48 575.74 741.54 574.07
  Q 742.15 557.30 741.20 539.59
  Q 741.04 536.73 741.46 534.02
  Q 741.49 533.82 741.69 533.85
  L 741.70 533.85"
/>
</g>
<path fill="#26202d" d="
  M 626.78 343.14
  Q 624.15 347.06 619.51 349.33
  C 609.56 354.18 598.94 355.02 588.26 356.53
  C 581.09 357.54 579.25 363.30 577.71 369.31
  Q 574.99 379.93 580.79 388.75
  C 586.85 397.95 598.54 404.70 609.68 403.19
  C 616.84 402.22 623.48 399.43 625.85 392.87
  Q 626.76 390.33 627.23 387.61
  Q 629.08 376.84 633.34 367.02
  C 637.63 357.14 648.51 354.68 657.52 359.74
  C 671.39 367.52 683.18 380.49 692.40 393.05
  Q 699.98 403.39 707.02 414.09
  A 2.73 2.72 44.9 0 1 707.03 417.07
  C 705.44 419.50 703.63 421.58 701.47 423.50
  Q 682.06 440.77 663.35 458.81
  C 658.93 463.07 656.30 464.87 657.43 470.77
  Q 659.06 479.24 665.26 483.31
  Q 669.30 485.97 677.76 487.51
  Q 685.81 488.98 693.43 491.65
  Q 700.65 494.17 704.13 500.48
  C 707.30 506.23 706.35 515.53 703.03 521.49
  C 698.50 529.64 691.53 536.69 683.13 540.53
  C 674.92 544.29 664.67 544.42 656.65 540.34
  C 647.82 535.85 643.17 527.16 643.26 517.02
  C 643.33 508.98 641.26 501.03 632.86 498.10
  Q 629.10 496.79 624.75 497.63
  C 615.87 499.32 609.64 505.28 603.75 511.63
  Q 588.02 528.62 573.23 540.95
  Q 566.92 546.22 561.74 551.74
  C 549.94 564.30 537.53 576.49 524.56 588.22
  Q 518.71 593.51 514.59 594.77
  Q 506.10 597.36 498.30 591.86
  C 488.48 584.95 484.16 576.94 481.25 565.85
  C 479.62 559.65 476.11 553.64 469.81 551.37
  Q 459.22 547.57 450.58 553.63
  Q 446.57 556.44 442.72 561.67
  C 436.93 569.52 434.41 581.79 442.10 589.16
  C 445.33 592.25 451.11 594.64 455.62 595.34
  C 463.71 596.58 471.75 598.08 477.82 603.51
  C 485.69 610.56 481.51 620.21 477.91 628.11
  C 471.58 641.98 460.93 652.40 450.19 662.58
  C 444.77 667.71 439.20 671.96 433.11 675.81
  C 428.34 678.82 422.78 673.72 419.69 670.38
  Q 408.19 657.98 394.14 644.18
  Q 387.78 637.94 380.76 633.70
  Q 367.53 625.72 360.17 637.62
  C 351.73 651.25 353.08 672.30 332.46 674.62
  C 321.22 675.89 312.35 671.02 305.99 661.71
  Q 300.81 654.14 298.95 646.73
  C 297.94 642.72 296.12 636.91 296.93 632.96
  C 298.47 625.46 308.83 621.44 315.49 619.66
  Q 322.74 617.72 331.15 615.96
  C 340.22 614.07 344.61 610.33 342.47 600.37
  Q 340.13 589.43 331.46 581.32
  Q 317.56 568.31 302.80 553.95
  Q 298.72 549.99 294.60 545.09
  Q 289.31 538.81 286.70 536.80
  Q 274.58 527.45 266.37 519.61
  C 256.88 510.55 246.73 501.27 238.87 491.60
  C 229.32 479.84 234.34 462.74 249.64 459.63
  Q 256.77 458.18 268.51 457.12
  Q 270.55 456.94 271.97 455.70
  C 276.18 452.03 278.88 444.54 278.14 439.04
  Q 276.47 426.62 267.00 416.06
  C 263.06 411.67 258.19 407.71 252.33 406.40
  Q 239.75 403.59 232.77 414.89
  Q 229.93 419.48 228.47 427.85
  C 226.64 438.28 223.90 450.94 214.18 455.05
  C 206.25 458.40 196.63 451.88 190.26 446.59
  Q 170.70 430.31 154.99 413.77
  Q 149.96 408.47 146.84 402.64
  Q 145.22 399.60 146.90 396.85
  Q 149.74 392.19 153.25 388.59
  C 162.36 379.23 171.04 370.43 179.32 360.48
  C 184.08 354.76 188.05 349.18 189.34 342.19
  C 190.92 333.60 182.67 327.17 175.33 325.22
  C 161.82 321.62 139.82 318.08 137.17 300.92
  C 135.31 288.94 137.87 277.85 147.64 270.03
  C 155.27 263.91 164.13 261.61 173.85 260.91
  Q 180.49 260.43 186.99 262.28
  C 191.15 263.46 193.84 269.18 195.23 273.03
  Q 199.66 285.25 205.01 297.69
  C 207.35 303.15 211.35 309.12 217.46 309.79
  C 224.46 310.55 233.23 304.60 238.19 299.85
  Q 253.00 285.64 268.17 271.27
  C 272.44 267.23 277.64 264.24 281.27 259.64
  Q 286.25 253.33 291.00 248.26
  Q 304.53 233.80 321.74 217.24
  C 331.70 207.65 349.32 202.04 357.52 217.74
  C 360.69 223.80 362.12 231.64 364.47 238.73
  C 366.95 246.18 372.35 257.59 381.17 258.61
  C 392.04 259.86 398.44 256.86 406.07 250.00
  C 412.71 244.03 417.30 233.85 413.74 225.30
  Q 408.60 212.97 395.87 210.79
  Q 387.70 209.40 379.48 207.92
  Q 367.68 205.81 362.03 196.99
  C 357.96 190.66 357.61 184.01 361.43 177.46
  Q 365.52 170.43 370.98 165.13
  Q 382.99 153.47 395.12 141.62
  C 400.68 136.18 407.31 129.98 414.65 128.44
  Q 421.11 127.09 425.54 131.03
  Q 429.40 134.46 433.21 138.38
  Q 448.40 154.00 464.23 168.72
  C 469.46 173.59 475.25 177.58 482.26 179.14
  C 492.19 181.36 495.94 173.41 497.57 165.49
  Q 499.30 157.02 501.23 148.90
  C 504.74 134.18 514.97 126.97 530.38 129.60
  Q 533.00 130.05 535.94 131.24
  Q 560.09 141.05 563.40 168.75
  C 564.27 176.00 562.22 184.31 555.93 188.14
  C 551.93 190.57 547.97 192.29 543.25 193.01
  Q 535.14 194.24 527.89 194.32
  Q 519.05 194.43 514.82 200.78
  C 508.19 210.72 516.44 222.69 523.98 230.06
  Q 534.14 239.99 544.43 248.82
  Q 558.27 260.67 566.18 272.03
  C 567.71 274.21 570.46 276.42 572.64 277.98
  Q 592.23 292.01 610.66 309.75
  C 618.03 316.84 626.14 326.33 628.00 336.39
  Q 628.71 340.26 626.78 343.14
  Z
  M 416.91 216.42
  C 420.61 222.37 423.23 229.67 421.43 236.49
  Q 420.16 241.31 417.10 247.22
  C 410.69 259.58 397.32 267.07 383.54 266.05
  C 374.83 265.40 367.26 259.54 363.20 251.78
  Q 359.30 244.35 357.38 237.16
  Q 355.78 231.21 354.20 225.49
  Q 353.10 221.51 350.58 218.46
  C 345.36 212.11 335.81 214.34 330.18 219.00
  Q 320.63 226.89 311.29 236.59
  Q 297.43 251.00 286.90 262.99
  Q 285.62 264.45 284.58 266.30
  A 1.23 1.22 -54.1 0 0 284.82 267.82
  Q 288.27 271.00 291.82 273.64
  C 303.82 282.60 314.62 293.65 324.39 304.84
  Q 330.00 311.27 332.42 316.23
  C 337.59 326.82 338.83 340.13 327.25 346.68
  Q 320.74 350.36 313.85 350.44
  Q 305.88 350.53 299.52 351.49
  C 293.60 352.39 288.70 356.04 288.47 362.65
  C 288.21 370.60 289.84 377.25 296.11 382.77
  C 304.96 390.56 315.28 393.32 326.71 394.76
  Q 328.97 395.04 331.01 394.37
  Q 331.50 394.21 331.82 393.81
  Q 334.93 390.00 336.18 385.51
  Q 338.66 376.55 340.37 368.53
  C 342.11 360.39 346.11 354.56 354.00 351.87
  C 365.55 347.94 376.94 354.53 384.68 362.93
  Q 400.74 380.36 417.78 397.04
  C 419.11 398.34 421.08 400.06 423.05 399.53
  Q 425.16 398.95 427.14 397.85
  C 434.95 393.51 442.27 388.51 448.51 382.20
  Q 458.15 372.45 465.38 362.90
  C 470.74 355.82 472.01 346.24 464.93 339.64
  C 463.19 338.03 460.68 336.90 458.47 336.06
  C 452.44 333.77 445.55 332.28 440.00 329.47
  C 430.44 324.64 422.20 319.75 419.31 309.32
  C 417.57 303.03 419.68 296.65 422.94 291.13
  C 427.51 283.39 436.82 277.99 445.49 275.62
  Q 454.44 273.16 459.54 273.18
  C 473.75 273.25 482.08 282.37 485.44 296.11
  Q 487.37 304.02 489.10 311.70
  C 491.12 320.69 497.34 326.18 506.61 321.40
  Q 514.69 317.23 520.04 313.20
  C 533.17 303.31 544.73 290.18 556.41 278.17
  Q 561.02 273.43 555.91 268.85
  Q 532.05 247.41 515.40 231.37
  Q 508.41 224.63 505.62 213.79
  C 503.23 204.50 509.97 190.27 520.76 189.05
  Q 529.83 188.02 538.36 186.95
  Q 547.36 185.82 550.65 183.50
  Q 556.18 179.60 555.91 171.12
  Q 555.25 150.70 539.43 141.21
  Q 532.68 137.17 527.28 136.93
  C 522.66 136.72 513.07 138.37 511.44 143.74
  Q 508.19 154.41 505.34 166.87
  C 503.75 173.81 499.37 184.14 491.73 186.30
  C 485.04 188.19 476.62 186.73 471.61 183.10
  Q 465.80 178.89 460.48 174.57
  C 453.29 168.72 447.02 161.66 440.25 155.25
  C 435.47 150.74 431.01 145.90 426.41 141.06
  C 423.70 138.22 419.11 134.98 415.09 136.12
  Q 412.07 136.97 409.13 139.30
  C 402.50 144.57 396.78 151.04 390.62 156.76
  Q 383.75 163.15 376.81 169.65
  Q 372.31 173.86 368.45 179.98
  C 362.02 190.17 368.98 198.69 378.98 201.15
  Q 385.65 202.80 394.12 203.71
  C 402.95 204.66 412.17 208.79 416.91 216.42
  Z
  M 239.89 476.51
  C 238.63 484.79 247.09 493.15 252.62 498.61
  Q 264.67 510.52 275.67 520.56
  Q 280.70 525.15 286.18 529.12
  A 3.45 3.44 49.4 0 0 289.77 529.40
  Q 293.71 527.41 297.21 524.43
  C 310.25 513.30 321.24 501.49 331.79 488.40
  C 333.83 485.86 336.54 482.46 337.49 479.36
  C 338.12 477.31 336.74 475.51 334.74 475.06
  Q 321.76 472.13 310.76 470.80
  C 291.80 468.52 292.23 444.98 299.08 432.77
  C 306.01 420.40 319.60 413.11 333.70 413.66
  Q 346.05 414.14 350.55 424.95
  Q 353.00 430.82 354.10 438.29
  C 354.84 443.36 356.63 448.09 358.47 452.90
  C 359.38 455.28 361.47 458.26 364.40 456.65
  Q 369.07 454.11 373.75 450.25
  Q 390.52 436.43 406.11 420.13
  Q 410.37 415.68 414.51 410.66
  Q 416.23 408.59 415.64 406.54
  C 414.56 402.78 410.54 399.06 407.76 396.27
  Q 393.45 381.89 380.08 367.33
  C 374.44 361.19 369.38 357.24 361.05 357.03
  C 352.85 356.83 348.10 363.01 347.00 370.56
  C 346.05 377.10 344.68 383.68 342.49 389.83
  C 338.65 400.59 329.71 403.74 318.98 401.42
  C 297.42 396.78 272.58 379.10 283.62 353.54
  C 288.73 341.70 305.52 343.41 315.65 343.14
  C 321.40 342.99 328.71 340.10 328.94 333.23
  C 329.22 324.88 324.08 315.60 318.91 309.21
  Q 312.18 300.88 303.33 291.94
  C 296.77 285.31 290.03 280.08 282.92 274.31
  Q 280.87 272.65 278.47 271.86
  Q 277.99 271.70 277.52 271.87
  Q 275.44 272.60 274.35 273.61
  Q 264.62 282.60 253.47 293.93
  C 245.34 302.20 234.77 312.04 223.47 315.42
  C 209.75 319.52 202.08 306.20 197.90 295.76
  Q 193.52 284.81 189.32 273.77
  Q 187.58 269.19 183.52 267.87
  Q 179.45 266.55 175.32 266.82
  C 165.34 267.48 154.64 270.44 148.22 278.22
  C 144.14 283.17 143.00 287.86 142.93 294.19
  C 142.87 300.30 144.00 305.41 149.02 309.25
  Q 154.33 313.31 160.70 315.02
  Q 169.03 317.26 177.25 319.53
  C 183.02 321.11 189.40 324.21 192.21 329.55
  Q 196.57 337.80 194.33 346.30
  C 192.24 354.24 187.26 361.10 181.74 367.42
  C 173.81 376.49 164.53 385.06 156.56 393.63
  Q 153.52 396.90 153.01 398.96
  C 152.34 401.66 155.39 405.06 157.15 406.97
  Q 172.43 423.58 194.88 442.11
  C 198.67 445.24 209.79 453.18 214.77 448.00
  Q 216.69 446.00 217.65 443.11
  Q 219.26 438.24 221.15 433.75
  C 222.95 429.47 223.62 424.85 224.56 420.17
  Q 225.95 413.19 232.32 406.37
  C 240.01 398.14 252.70 397.84 261.87 403.96
  C 276.84 413.96 290.89 437.73 279.94 455.69
  Q 275.39 463.14 268.09 463.39
  Q 259.91 463.68 251.97 465.08
  C 245.27 466.27 240.98 469.38 239.89 476.51
  Z
  M 652.31 464.51
  C 652.51 462.77 653.92 461.37 655.12 460.21
  Q 665.33 450.37 675.68 440.41
  C 682.08 434.25 688.58 428.89 695.30 423.24
  Q 697.91 421.05 700.34 417.92
  A 2.55 2.51 -28.2 0 0 700.87 416.21
  Q 700.72 413.41 699.26 411.18
  Q 688.41 394.55 673.74 378.97
  Q 670.40 375.41 667.10 372.73
  C 662.58 369.03 657.41 365.26 651.62 363.97
  Q 642.68 361.99 639.25 370.10
  C 636.55 376.51 635.06 383.03 633.66 389.84
  C 632.52 395.43 629.85 399.61 625.89 403.71
  Q 623.01 406.69 618.12 407.98
  C 608.17 410.61 598.02 409.97 589.30 404.53
  C 580.22 398.85 573.82 392.10 572.23 380.99
  C 571.46 375.57 571.38 369.40 572.90 364.07
  C 574.77 357.47 579.43 351.70 586.67 350.93
  Q 597.75 349.75 610.84 346.81
  C 615.45 345.78 621.72 341.49 621.95 336.38
  C 622.14 332.36 619.70 328.49 616.96 325.43
  Q 603.00 309.81 593.35 301.51
  Q 587.84 296.78 582.41 291.64
  Q 580.46 289.80 572.72 284.85
  C 568.82 282.36 564.71 280.07 560.94 283.78
  Q 554.16 290.47 546.78 298.52
  Q 538.84 307.17 527.90 315.70
  Q 520.57 321.41 512.72 325.22
  Q 504.34 329.30 497.69 328.91
  C 490.07 328.47 484.39 323.03 482.19 315.58
  Q 481.34 312.70 480.69 310.18
  Q 478.54 301.86 476.63 292.91
  C 475.43 287.34 471.27 281.23 465.45 280.16
  C 456.00 278.42 445.94 281.83 437.77 286.93
  Q 430.34 291.56 426.52 299.21
  Q 423.76 304.75 427.21 310.50
  C 430.84 316.56 434.35 319.47 441.30 322.24
  Q 450.01 325.72 457.94 328.64
  Q 463.25 330.59 467.64 333.00
  C 473.08 335.99 475.69 341.58 476.78 347.44
  Q 477.58 351.73 475.90 357.07
  Q 472.75 367.06 466.27 373.82
  C 454.83 385.74 442.89 395.25 429.89 404.82
  Q 426.23 407.51 429.18 410.77
  C 438.86 421.49 449.40 431.65 459.43 441.46
  Q 464.10 446.03 471.13 451.41
  C 476.59 455.59 481.53 459.46 488.01 453.35
  Q 490.85 450.67 492.67 446.02
  Q 497.46 433.74 501.38 422.76
  Q 504.48 414.06 511.70 410.96
  Q 520.12 407.36 530.05 408.80
  C 542.74 410.63 553.82 420.68 557.69 432.73
  Q 559.68 438.94 559.25 447.90
  C 558.80 457.23 553.16 465.37 544.03 467.49
  Q 536.93 469.13 529.98 470.88
  Q 522.56 472.74 517.01 475.77
  C 506.74 481.39 510.09 490.42 516.39 497.09
  C 531.01 512.57 545.65 528.09 562.76 540.40
  A 1.55 1.54 51.2 0 0 564.27 540.57
  Q 566.75 539.55 569.07 537.73
  Q 576.31 532.04 584.86 523.48
  C 591.73 516.61 598.46 510.29 605.34 503.59
  C 613.34 495.82 621.14 491.53 632.88 493.20
  C 638.53 494.00 643.71 499.34 646.07 504.09
  Q 647.75 507.48 647.95 512.31
  C 648.26 519.93 650.09 530.86 657.46 535.13
  Q 661.80 537.65 665.87 537.91
  Q 684.83 539.16 695.58 524.29
  C 699.14 519.37 701.56 514.94 701.00 508.56
  Q 700.52 503.02 695.87 499.27
  Q 691.36 495.62 687.39 494.70
  C 679.71 492.91 671.28 492.19 664.13 488.47
  Q 655.24 483.85 652.84 472.27
  Q 651.93 467.84 652.31 464.51
  Z
  M 460.67 543.79
  C 467.37 542.76 474.44 545.20 479.77 549.66
  Q 484.73 553.81 486.38 560.42
  Q 488.36 568.38 491.71 575.36
  Q 495.70 583.69 504.50 587.77
  C 511.77 591.14 517.95 585.91 523.10 581.19
  Q 541.66 564.21 556.77 547.38
  A 0.73 0.71 52.1 0 0 556.86 546.56
  Q 555.93 544.84 554.45 543.51
  Q 535.21 526.19 517.62 508.64
  Q 511.09 502.12 505.95 492.51
  C 504.35 489.52 503.64 486.52 503.52 483.14
  C 503.11 472.03 515.71 467.38 524.37 464.84
  Q 528.12 463.75 532.53 463.00
  C 541.58 461.48 552.53 455.63 553.33 445.61
  Q 554.05 436.48 548.43 427.69
  C 541.73 417.21 528.50 412.63 516.72 415.64
  Q 510.56 417.22 507.52 423.57
  C 504.49 429.91 503.10 437.18 501.39 443.96
  C 499.56 451.21 495.85 458.03 488.41 460.41
  C 474.90 464.73 464.06 456.07 454.74 446.53
  Q 439.76 431.18 423.80 414.87
  A 1.94 1.94 0.0 0 0 421.26 414.66
  Q 419.45 415.98 417.90 417.52
  C 408.06 427.28 397.96 436.13 387.96 446.21
  Q 382.05 452.18 375.59 457.68
  C 370.91 461.67 363.21 465.82 357.42 462.00
  C 353.50 459.41 351.95 454.77 350.79 450.33
  Q 347.98 439.50 346.06 430.12
  Q 345.49 427.32 343.90 424.65
  C 341.21 420.13 333.44 419.30 328.73 419.78
  Q 311.79 421.53 305.01 434.97
  Q 302.68 439.59 302.24 444.22
  C 301.54 451.59 300.44 463.18 310.61 464.73
  Q 317.66 465.80 325.69 466.78
  C 330.51 467.36 346.59 471.23 345.01 478.53
  Q 344.28 481.92 342.01 485.77
  C 338.62 491.51 334.96 496.28 329.80 501.26
  Q 323.03 507.80 316.21 514.81
  C 309.74 521.46 302.66 527.93 296.20 534.45
  A 2.08 2.08 0.0 0 0 295.99 537.15
  C 297.89 539.76 299.89 542.44 302.12 544.60
  Q 321.82 563.72 334.38 574.95
  Q 348.12 587.22 349.32 603.75
  C 349.98 612.74 344.97 619.54 336.38 621.80
  C 330.56 623.33 324.47 623.81 318.88 625.39
  Q 314.41 626.66 309.56 628.67
  C 305.91 630.19 302.67 632.98 303.04 637.24
  Q 304.49 654.20 317.99 665.12
  C 323.81 669.84 335.94 670.03 341.04 663.97
  C 345.49 658.67 348.19 651.65 350.33 645.15
  C 352.59 638.27 355.66 630.42 361.87 626.67
  C 368.70 622.54 378.87 624.48 385.31 628.60
  Q 389.67 631.39 393.99 635.67
  C 404.23 645.79 414.10 655.11 424.00 666.22
  C 426.01 668.48 429.62 671.62 432.89 669.09
  C 449.32 656.39 465.77 641.55 473.79 621.84
  C 475.67 617.20 477.03 610.21 472.15 606.85
  C 469.60 605.09 466.74 604.14 463.66 603.52
  Q 453.18 601.44 445.54 598.91
  Q 435.62 595.62 433.04 585.14
  C 429.88 572.33 433.77 561.03 443.21 551.84
  Q 449.76 545.47 460.67 543.79
  Z"
/>
<path fill="#ef1d26" d="
  M 421.43 236.49
  C 423.23 229.67 420.61 222.37 416.91 216.42
  C 412.17 208.79 402.95 204.66 394.12 203.71
  Q 385.65 202.80 378.98 201.15
  C 368.98 198.69 362.02 190.17 368.45 179.98
  Q 372.31 173.86 376.81 169.65
  Q 383.75 163.15 390.62 156.76
  C 396.78 151.04 402.50 144.57 409.13 139.30
  Q 412.07 136.97 415.09 136.12
  C 419.11 134.98 423.70 138.22 426.41 141.06
  C 431.01 145.90 435.47 150.74 440.25 155.25
  C 447.02 161.66 453.29 168.72 460.48 174.57
  Q 465.80 178.89 471.61 183.10
  C 476.62 186.73 485.04 188.19 491.73 186.30
  C 499.37 184.14 503.75 173.81 505.34 166.87
  Q 508.19 154.41 511.44 143.74
  C 513.07 138.37 522.66 136.72 527.28 136.93
  Q 532.68 137.17 539.43 141.21
  Q 555.25 150.70 555.91 171.12
  Q 556.18 179.60 550.65 183.50
  Q 547.36 185.82 538.36 186.95
  Q 529.83 188.02 520.76 189.05
  C 509.97 190.27 503.23 204.50 505.62 213.79
  Q 508.41 224.63 515.40 231.37
  Q 532.05 247.41 555.91 268.85
  Q 561.02 273.43 556.41 278.17
  C 544.73 290.18 533.17 303.31 520.04 313.20
  Q 514.69 317.23 506.61 321.40
  C 497.34 326.18 491.12 320.69 489.10 311.70
  Q 487.37 304.02 485.44 296.11
  C 482.08 282.37 473.75 273.25 459.54 273.18
  Q 454.44 273.16 445.49 275.62
  C 436.82 277.99 427.51 283.39 422.94 291.13
  C 419.68 296.65 417.57 303.03 419.31 309.32
  C 422.20 319.75 430.44 324.64 440.00 329.47
  C 445.55 332.28 452.44 333.77 458.47 336.06
  C 460.68 336.90 463.19 338.03 464.93 339.64
  C 472.01 346.24 470.74 355.82 465.38 362.90
  Q 458.15 372.45 448.51 382.20
  C 442.27 388.51 434.95 393.51 427.14 397.85
  Q 425.16 398.95 423.05 399.53
  C 421.08 400.06 419.11 398.34 417.78 397.04
  Q 400.74 380.36 384.68 362.93
  C 376.94 354.53 365.55 347.94 354.00 351.87
  C 346.11 354.56 342.11 360.39 340.37 368.53
  Q 338.66 376.55 336.18 385.51
  Q 334.93 390.00 331.82 393.81
  Q 331.50 394.21 331.01 394.37
  Q 328.97 395.04 326.71 394.76
  C 315.28 393.32 304.96 390.56 296.11 382.77
  C 289.84 377.25 288.21 370.60 288.47 362.65
  C 288.70 356.04 293.60 352.39 299.52 351.49
  Q 305.88 350.53 313.85 350.44
  Q 320.74 350.36 327.25 346.68
  C 338.83 340.13 337.59 326.82 332.42 316.23
  Q 330.00 311.27 324.39 304.84
  C 314.62 293.65 303.82 282.60 291.82 273.64
  Q 288.27 271.00 284.82 267.82
  A 1.23 1.22 -54.1 0 1 284.58 266.30
  Q 285.62 264.45 286.90 262.99
  Q 297.43 251.00 311.29 236.59
  Q 320.63 226.89 330.18 219.00
  C 335.81 214.34 345.36 212.11 350.58 218.46
  Q 353.10 221.51 354.20 225.49
  Q 355.78 231.21 357.38 237.16
  Q 359.30 244.35 363.20 251.78
  C 367.26 259.54 374.83 265.40 383.54 266.05
  C 397.32 267.07 410.69 259.58 417.10 247.22
  Q 420.16 241.31 421.43 236.49
  Z"
/>
<path fill="#28b24d" d="
  M 239.89 476.51
  C 240.98 469.38 245.27 466.27 251.97 465.08
  Q 259.91 463.68 268.09 463.39
  Q 275.39 463.14 279.94 455.69
  C 290.89 437.73 276.84 413.96 261.87 403.96
  C 252.70 397.84 240.01 398.14 232.32 406.37
  Q 225.95 413.19 224.56 420.17
  C 223.62 424.85 222.95 429.47 221.15 433.75
  Q 219.26 438.24 217.65 443.11
  Q 216.69 446.00 214.77 448.00
  C 209.79 453.18 198.67 445.24 194.88 442.11
  Q 172.43 423.58 157.15 406.97
  C 155.39 405.06 152.34 401.66 153.01 398.96
  Q 153.52 396.90 156.56 393.63
  C 164.53 385.06 173.81 376.49 181.74 367.42
  C 187.26 361.10 192.24 354.24 194.33 346.30
  Q 196.57 337.80 192.21 329.55
  C 189.40 324.21 183.02 321.11 177.25 319.53
  Q 169.03 317.26 160.70 315.02
  Q 154.33 313.31 149.02 309.25
  C 144.00 305.41 142.87 300.30 142.93 294.19
  C 143.00 287.86 144.14 283.17 148.22 278.22
  C 154.64 270.44 165.34 267.48 175.32 266.82
  Q 179.45 266.55 183.52 267.87
  Q 187.58 269.19 189.32 273.77
  Q 193.52 284.81 197.90 295.76
  C 202.08 306.20 209.75 319.52 223.47 315.42
  C 234.77 312.04 245.34 302.20 253.47 293.93
  Q 264.62 282.60 274.35 273.61
  Q 275.44 272.60 277.52 271.87
  Q 277.99 271.70 278.47 271.86
  Q 280.87 272.65 282.92 274.31
  C 290.03 280.08 296.77 285.31 303.33 291.94
  Q 312.18 300.88 318.91 309.21
  C 324.08 315.60 329.22 324.88 328.94 333.23
  C 328.71 340.10 321.40 342.99 315.65 343.14
  C 305.52 343.41 288.73 341.70 283.62 353.54
  C 272.58 379.10 297.42 396.78 318.98 401.42
  C 329.71 403.74 338.65 400.59 342.49 389.83
  C 344.68 383.68 346.05 377.10 347.00 370.56
  C 348.10 363.01 352.85 356.83 361.05 357.03
  C 369.38 357.24 374.44 361.19 380.08 367.33
  Q 393.45 381.89 407.76 396.27
  C 410.54 399.06 414.56 402.78 415.64 406.54
  Q 416.23 408.59 414.51 410.66
  Q 410.37 415.68 406.11 420.13
  Q 390.52 436.43 373.75 450.25
  Q 369.07 454.11 364.40 456.65
  C 361.47 458.26 359.38 455.28 358.47 452.90
  C 356.63 448.09 354.84 443.36 354.10 438.29
  Q 353.00 430.82 350.55 424.95
  Q 346.05 414.14 333.70 413.66
  C 319.60 413.11 306.01 420.40 299.08 432.77
  C 292.23 444.98 291.80 468.52 310.76 470.80
  Q 321.76 472.13 334.74 475.06
  C 336.74 475.51 338.12 477.31 337.49 479.36
  C 336.54 482.46 333.83 485.86 331.79 488.40
  C 321.24 501.49 310.25 513.30 297.21 524.43
  Q 293.71 527.41 289.77 529.40
  A 3.45 3.44 49.4 0 1 286.18 529.12
  Q 280.70 525.15 275.67 520.56
  Q 264.67 510.52 252.62 498.61
  C 247.09 493.15 238.63 484.79 239.89 476.51
  Z"
/>
<path fill="#2c479e" d="
  M 652.31 464.51
  Q 651.93 467.84 652.84 472.27
  Q 655.24 483.85 664.13 488.47
  C 671.28 492.19 679.71 492.91 687.39 494.70
  Q 691.36 495.62 695.87 499.27
  Q 700.52 503.02 701.00 508.56
  C 701.56 514.94 699.14 519.37 695.58 524.29
  Q 684.83 539.16 665.87 537.91
  Q 661.80 537.65 657.46 535.13
  C 650.09 530.86 648.26 519.93 647.95 512.31
  Q 647.75 507.48 646.07 504.09
  C 643.71 499.34 638.53 494.00 632.88 493.20
  C 621.14 491.53 613.34 495.82 605.34 503.59
  C 598.46 510.29 591.73 516.61 584.86 523.48
  Q 576.31 532.04 569.07 537.73
  Q 566.75 539.55 564.27 540.57
  A 1.55 1.54 51.2 0 1 562.76 540.40
  C 545.65 528.09 531.01 512.57 516.39 497.09
  C 510.09 490.42 506.74 481.39 517.01 475.77
  Q 522.56 472.74 529.98 470.88
  Q 536.93 469.13 544.03 467.49
  C 553.16 465.37 558.80 457.23 559.25 447.90
  Q 559.68 438.94 557.69 432.73
  C 553.82 420.68 542.74 410.63 530.05 408.80
  Q 520.12 407.36 511.70 410.96
  Q 504.48 414.06 501.38 422.76
  Q 497.46 433.74 492.67 446.02
  Q 490.85 450.67 488.01 453.35
  C 481.53 459.46 476.59 455.59 471.13 451.41
  Q 464.10 446.03 459.43 441.46
  C 449.40 431.65 438.86 421.49 429.18 410.77
  Q 426.23 407.51 429.89 404.82
  C 442.89 395.25 454.83 385.74 466.27 373.82
  Q 472.75 367.06 475.90 357.07
  Q 477.58 351.73 476.78 347.44
  C 475.69 341.58 473.08 335.99 467.64 333.00
  Q 463.25 330.59 457.94 328.64
  Q 450.01 325.72 441.30 322.24
  C 434.35 319.47 430.84 316.56 427.21 310.50
  Q 423.76 304.75 426.52 299.21
  Q 430.34 291.56 437.77 286.93
  C 445.94 281.83 456.00 278.42 465.45 280.16
  C 471.27 281.23 475.43 287.34 476.63 292.91
  Q 478.54 301.86 480.69 310.18
  Q 481.34 312.70 482.19 315.58
  C 484.39 323.03 490.07 328.47 497.69 328.91
  Q 504.34 329.30 512.72 325.22
  Q 520.57 321.41 527.90 315.70
  Q 538.84 307.17 546.78 298.52
  Q 554.16 290.47 560.94 283.78
  C 564.71 280.07 568.82 282.36 572.72 284.85
  Q 580.46 289.80 582.41 291.64
  Q 587.84 296.78 593.35 301.51
  Q 603.00 309.81 616.96 325.43
  C 619.70 328.49 622.14 332.36 621.95 336.38
  C 621.72 341.49 615.45 345.78 610.84 346.81
  Q 597.75 349.75 586.67 350.93
  C 579.43 351.70 574.77 357.47 572.90 364.07
  C 571.38 369.40 571.46 375.57 572.23 380.99
  C 573.82 392.10 580.22 398.85 589.30 404.53
  C 598.02 409.97 608.17 410.61 618.12 407.98
  Q 623.01 406.69 625.89 403.71
  C 629.85 399.61 632.52 395.43 633.66 389.84
  C 635.06 383.03 636.55 376.51 639.25 370.10
  Q 642.68 361.99 651.62 363.97
  C 657.41 365.26 662.58 369.03 667.10 372.73
  Q 670.40 375.41 673.74 378.97
  Q 688.41 394.55 699.26 411.18
  Q 700.72 413.41 700.87 416.21
  A 2.55 2.51 -28.2 0 1 700.34 417.92
  Q 697.91 421.05 695.30 423.24
  C 688.58 428.89 682.08 434.25 675.68 440.41
  Q 665.33 450.37 655.12 460.21
  C 653.92 461.37 652.51 462.77 652.31 464.51
  Z"
/>
<path fill="#1e1f3a" d="
  M 578.21 859.52
  Q 580.31 859.41 582.26 858.85
  C 590.14 856.62 597.58 854.50 605.54 851.42
  Q 611.41 849.15 617.56 847.00
  C 624.61 844.53 631.63 841.54 638.61 838.81
  Q 638.80 838.74 638.99 838.79
  Q 639.31 838.86 639.01 838.98
  Q 625.97 844.57 612.86 850.41
  Q 602.43 855.05 594.75 857.72
  Q 584.47 861.30 572.79 865.04
  C 571.42 865.48 568.87 866.14 568.21 864.21
  A 1.53 1.52 -17.0 0 0 566.36 863.23
  Q 562.17 864.39 557.79 865.27
  Q 556.40 865.55 554.87 867.05
  C 554.03 867.87 554.20 868.77 553.64 869.66
  Q 553.35 870.14 552.81 870.31
  Q 550.50 871.02 548.28 871.70
  C 543.86 873.06 539.11 873.61 534.62 874.69
  C 528.24 876.23 521.71 876.91 515.32 878.23
  Q 510.30 879.26 505.03 879.85
  Q 491.88 881.30 478.63 882.85
  Q 474.65 883.32 462.49 883.53
  Q 461.94 883.54 461.51 883.21
  Q 458.44 880.86 453.65 881.05
  C 450.74 881.16 448.03 881.90 445.16 881.13
  C 441.18 880.07 436.68 879.11 432.97 881.12
  C 430.85 882.26 428.75 883.79 426.25 883.70
  C 417.30 883.39 408.42 883.16 399.43 881.99
  Q 390.67 880.84 382.33 880.02
  Q 376.66 879.47 370.80 878.27
  C 364.42 876.98 357.83 876.26 351.37 874.70
  C 345.64 873.32 339.94 872.53 334.20 870.75
  C 330.35 869.55 326.37 869.03 322.54 867.78
  Q 314.84 865.28 306.63 862.58
  Q 305.12 862.09 304.00 861.04
  Q 302.09 859.27 304.67 859.64
  Q 306.52 859.91 308.51 860.01
  Q 310.84 860.12 309.44 858.26
  Q 307.05 855.09 304.84 851.32
  C 301.48 845.56 296.38 839.60 291.16 834.78
  Q 277.07 821.75 260.67 813.10
  C 253.28 809.19 246.82 805.50 239.66 802.36
  Q 215.46 791.75 191.98 781.50
  C 184.94 778.43 177.16 775.72 170.40 772.24
  C 151.55 762.56 133.68 750.73 118.74 736.23
  C 113.57 731.21 107.97 726.21 103.14 720.87
  Q 91.95 708.52 83.34 695.14
  Q 74.10 680.78 69.56 672.14
  Q 64.57 662.67 59.08 649.44
  Q 47.25 620.95 37.73 593.77
  Q 33.05 580.42 31.81 576.71
  Q 23.72 552.46 15.52 520.31
  Q 14.12 514.83 13.18 510.09
  C 12.23 505.34 10.96 500.67 10.21 495.90
  Q 7.09 476.22 6.67 469.15
  Q 6.14 460.03 6.38 444.61
  Q 6.49 437.69 7.51 432.46
  C 8.99 424.94 11.10 416.94 16.29 411.14
  C 22.00 404.76 33.55 402.93 41.35 404.13
  Q 47.15 405.03 53.34 408.23
  A 1.75 1.75 0.0 0 0 55.89 406.57
  Q 55.13 393.66 57.11 381.36
  Q 58.41 373.31 61.75 366.52
  C 68.69 352.43 86.68 350.68 99.26 357.28
  C 111.96 363.95 118.51 379.47 120.78 393.03
  Q 123.35 408.44 122.62 424.37
  C 122.57 425.48 123.21 426.80 123.99 427.54
  Q 131.60 434.71 135.58 442.74
  Q 140.39 452.43 142.33 461.51
  Q 143.84 468.56 145.02 476.70
  Q 145.40 479.29 146.32 482.01
  Q 146.48 482.50 146.92 482.76
  C 165.29 493.69 169.13 521.46 171.64 540.47
  C 173.39 553.75 173.16 567.65 172.85 581.51
  C 172.64 590.37 175.04 596.94 178.76 604.81
  Q 185.06 618.13 197.95 628.52
  C 205.01 634.21 211.56 638.97 219.19 643.33
  C 249.10 660.41 278.97 674.67 311.27 687.78
  C 317.88 690.46 324.25 693.56 330.66 696.66
  Q 334.57 698.55 338.06 700.60
  Q 355.02 710.52 370.79 722.77
  C 382.53 731.89 392.84 743.10 402.49 754.76
  C 413.44 767.98 421.74 782.01 429.14 797.33
  C 434.27 807.96 437.66 819.15 441.12 830.71
  Q 441.53 832.10 442.83 831.43
  Q 443.79 830.93 444.22 829.63
  C 447.07 821.06 449.88 812.16 453.51 804.15
  C 461.72 786.04 472.27 768.31 485.55 753.33
  C 494.41 743.34 503.42 733.67 513.94 725.68
  Q 532.99 711.24 551.54 701.46
  C 562.86 695.50 574.91 689.84 586.72 685.02
  C 597.89 680.47 609.10 676.17 620.03 670.92
  Q 646.51 658.19 674.97 640.33
  C 686.59 633.05 696.24 624.90 703.00 612.96
  C 707.87 604.35 711.66 596.42 711.43 586.63
  C 711.17 575.82 710.71 564.14 711.97 553.33
  C 712.68 547.24 712.87 541.27 714.07 535.21
  C 717.46 518.05 720.52 496.71 736.32 486.83
  C 738.26 485.62 738.98 483.15 739.23 480.98
  Q 740.52 469.87 744.00 458.03
  Q 746.65 449.04 751.14 441.83
  C 753.70 437.71 757.09 434.12 760.38 430.47
  A 3.49 3.47 66.9 0 0 761.28 428.21
  C 761.45 420.67 761.15 413.47 762.18 405.92
  Q 763.56 395.81 765.67 388.47
  C 768.22 379.54 772.68 369.37 780.39 363.62
  C 789.55 356.79 802.34 354.37 812.64 359.96
  C 822.34 365.22 826.21 376.59 827.48 387.18
  Q 828.85 398.73 828.32 409.23
  Q 828.22 411.21 829.78 412.11
  Q 830.24 412.37 830.72 412.16
  Q 832.76 411.24 834.67 410.23
  C 839.09 407.88 846.05 407.08 850.19 407.61
  C 853.70 408.05 857.56 408.45 860.76 409.82
  C 872.25 414.72 876.06 428.25 877.36 440.22
  Q 879.24 457.45 877.22 476.32
  Q 875.14 495.79 871.45 510.88
  Q 869.79 517.65 868.37 525.51
  C 868.10 526.98 867.49 528.24 867.12 529.68
  Q 861.21 552.76 854.87 572.79
  C 853.15 578.23 850.79 583.78 849.07 589.12
  Q 845.63 599.75 841.09 612.20
  Q 835.56 627.35 830.56 639.96
  Q 820.16 666.23 815.84 673.92
  C 805.24 692.83 794.80 710.19 780.42 725.36
  Q 769.03 737.36 760.30 744.85
  Q 752.57 751.47 741.07 759.18
  Q 723.53 770.94 712.05 777.31
  Q 697.46 785.39 671.67 795.89
  Q 651.33 804.18 630.59 814.26
  C 612.17 823.21 596.21 833.98 583.74 848.97
  Q 579.68 853.86 577.75 858.90
  Q 577.50 859.56 578.21 859.52
  Z
  M 16.51 418.52
  Q 11.99 434.08 10.86 440.72
  Q 9.31 449.80 10.70 464.27
  Q 11.93 476.98 13.95 489.45
  Q 16.48 505.12 22.88 531.40
  C 24.62 538.58 26.99 546.31 29.07 553.66
  Q 31.30 561.55 34.28 570.10
  Q 41.03 589.51 46.99 605.89
  Q 53.09 622.69 61.64 644.29
  C 70.83 667.50 83.32 689.24 98.82 708.69
  Q 104.48 715.79 112.40 723.47
  Q 121.40 732.19 130.75 740.14
  Q 135.78 744.41 140.82 747.81
  Q 161.04 761.47 183.83 771.90
  C 190.19 774.81 196.20 778.20 202.45 780.98
  Q 210.00 784.33 216.07 786.93
  Q 234.13 794.67 251.95 802.27
  Q 269.46 809.74 286.76 823.86
  Q 301.91 836.22 310.62 851.04
  C 311.79 853.04 313.58 854.74 315.67 855.60
  Q 328.39 860.84 348.28 868.57
  C 355.58 870.46 362.85 872.29 370.29 873.31
  Q 378.49 874.44 386.53 875.65
  Q 396.32 877.12 414.65 876.64
  C 421.31 876.46 427.27 874.45 433.69 872.65
  C 435.58 872.12 436.07 870.81 436.34 869.01
  Q 437.74 859.74 435.86 850.46
  Q 433.03 836.54 429.08 823.90
  Q 416.95 785.13 390.53 754.47
  Q 381.41 743.89 373.81 736.99
  Q 357.32 722.02 336.62 709.61
  C 331.64 706.63 326.35 704.02 321.10 701.20
  Q 311.43 695.99 296.04 689.96
  Q 278.12 682.93 259.85 674.45
  Q 251.19 670.43 242.47 665.71
  Q 229.03 658.44 218.92 652.33
  Q 203.02 642.72 195.33 636.67
  Q 187.65 630.62 180.44 624.91
  Q 173.90 618.29 170.99 613.52
  Q 167.81 608.30 164.93 604.38
  Q 156.91 593.49 146.57 587.75
  Q 135.88 581.82 131.02 580.53
  Q 127.87 579.69 125.63 580.55
  C 121.68 580.19 114.16 579.95 111.96 583.98
  C 108.03 591.16 105.81 598.13 107.50 606.28
  C 110.26 619.56 113.46 632.85 118.85 644.97
  C 126.46 662.09 135.91 676.39 148.89 688.88
  Q 154.22 694.01 159.70 699.13
  Q 136.08 686.19 123.31 662.75
  Q 111.95 645.70 107.22 632.00
  Q 102.18 617.43 101.92 602.00
  Q 101.74 591.63 106.58 582.66
  C 107.79 580.41 109.55 578.58 110.84 576.40
  Q 111.51 575.26 110.92 574.08
  C 109.44 571.07 107.37 568.65 105.85 565.72
  Q 96.54 547.73 87.98 527.64
  Q 87.38 526.22 87.52 524.73
  Q 87.59 524.04 87.80 524.70
  C 88.47 526.86 89.77 528.61 90.74 530.69
  Q 96.83 543.78 104.01 557.20
  C 106.96 562.73 110.52 567.34 113.94 572.43
  C 116.39 576.07 119.60 577.52 123.86 576.28
  Q 125.68 575.75 125.01 573.98
  C 120.23 561.38 116.54 548.37 112.96 535.39
  Q 111.63 530.57 110.89 526.55
  C 109.53 519.18 107.46 511.83 106.53 504.40
  Q 103.78 482.57 105.92 461.64
  Q 106.53 455.70 109.69 444.74
  Q 111.78 437.49 112.54 425.74
  Q 112.69 425.25 112.92 425.15
  Q 113.04 425.10 113.13 425.18
  Q 113.18 425.22 113.23 425.23
  Q 113.29 425.25 113.30 425.18
  Q 114.24 416.41 112.88 407.99
  C 112.46 399.86 111.48 390.47 108.05 383.00
  C 105.34 377.09 103.07 372.19 98.79 367.93
  Q 91.77 360.94 82.08 360.81
  Q 69.94 360.66 64.85 371.91
  C 60.62 381.24 60.05 392.24 60.24 402.27
  Q 60.52 416.78 62.85 430.92
  Q 63.82 436.83 64.57 442.22
  Q 65.34 447.80 66.62 453.03
  C 68.00 458.69 68.74 464.42 70.46 469.87
  Q 72.50 476.34 73.78 482.22
  Q 75.18 488.66 77.49 496.21
  Q 77.77 497.12 77.69 498.06
  Q 77.61 498.86 77.30 498.13
  Q 70.89 483.19 69.45 478.76
  Q 63.64 460.85 60.61 442.68
  C 58.79 431.76 55.10 419.87 45.71 413.56
  Q 42.72 411.55 39.23 411.23
  Q 26.42 410.07 16.51 418.52
  Z
  M 760.64 668.27
  Q 752.63 680.28 743.28 689.05
  Q 736.68 695.24 727.48 700.22
  Q 739.23 689.02 743.91 683.42
  Q 760.26 663.81 769.58 640.19
  Q 774.34 628.13 775.94 613.70
  Q 777.18 602.55 775.58 594.27
  C 774.38 588.03 770.82 584.04 764.26 583.49
  Q 759.66 583.10 755.52 583.88
  Q 736.95 588.54 723.72 602.34
  Q 721.05 605.13 717.07 611.30
  Q 711.65 619.70 704.94 627.28
  Q 701.18 630.15 697.35 633.30
  Q 681.84 646.07 667.90 654.33
  C 657.21 660.66 645.98 667.65 634.61 672.84
  Q 610.10 684.03 585.00 694.73
  Q 581.00 696.44 576.71 698.38
  C 571.11 700.91 565.32 704.20 559.71 706.91
  Q 553.98 709.68 550.93 711.44
  Q 530.12 723.44 515.58 735.85
  Q 500.08 749.08 485.54 767.96
  C 475.11 781.50 466.54 797.32 460.51 812.86
  Q 455.05 826.93 451.37 842.15
  C 449.32 850.62 448.21 858.98 446.54 867.63
  Q 446.10 869.90 446.03 872.01
  Q 446.00 873.19 446.99 873.84
  Q 452.54 877.47 459.48 877.52
  Q 476.99 877.63 494.63 876.26
  C 501.98 875.69 509.51 874.23 516.98 873.29
  C 523.27 872.50 529.31 871.07 535.55 869.67
  Q 544.37 869.10 552.52 866.29
  Q 560.70 863.47 570.00 858.12
  Q 573.03 856.37 574.53 853.88
  Q 581.10 842.95 588.53 835.57
  Q 601.10 823.07 620.86 811.36
  Q 625.13 808.83 630.31 806.47
  C 649.46 797.73 668.93 790.66 687.78 781.76
  Q 699.01 776.46 709.37 771.35
  Q 727.60 762.37 744.85 750.35
  Q 752.71 744.88 760.06 738.15
  C 770.06 729.00 780.26 719.38 788.32 708.76
  C 799.83 693.59 810.28 676.23 817.36 660.65
  Q 822.50 649.35 827.13 637.23
  Q 839.77 604.13 850.21 572.43
  C 851.43 568.72 853.17 565.03 854.25 561.41
  Q 857.33 551.06 860.31 540.67
  C 861.58 536.22 862.30 531.92 863.49 527.65
  Q 864.84 522.82 865.85 517.79
  Q 870.52 494.54 872.46 478.97
  C 874.05 466.22 874.84 453.31 872.70 440.27
  Q 872.33 438.01 870.77 432.35
  Q 869.76 428.71 868.94 424.37
  Q 865.10 419.27 857.34 416.13
  Q 852.30 414.08 846.54 414.27
  C 834.78 414.64 828.08 429.00 825.40 438.82
  C 823.97 444.07 822.20 453.58 820.95 460.80
  C 820.21 465.03 818.80 469.21 817.70 473.49
  Q 816.46 478.36 814.80 482.81
  Q 811.21 492.43 806.96 502.50
  Q 806.90 502.65 806.74 502.60
  L 806.73 502.60
  Q 806.54 502.53 806.59 502.34
  C 808.52 494.09 810.75 486.09 812.43 477.79
  Q 813.49 472.49 814.92 467.37
  C 817.01 459.86 818.05 452.35 819.61 444.76
  C 821.11 437.50 821.97 430.01 822.98 422.42
  Q 824.25 412.81 824.13 400.90
  Q 824.00 388.09 820.94 378.95
  C 818.75 372.39 813.79 365.66 806.51 364.65
  C 800.55 363.81 793.85 364.65 788.82 368.52
  Q 783.83 372.36 781.13 377.00
  Q 776.35 385.19 774.78 391.42
  C 773.48 396.56 772.07 401.66 771.61 407.13
  Q 770.14 424.42 772.16 436.43
  Q 773.30 443.22 775.69 452.63
  Q 778.00 461.73 778.79 468.49
  Q 780.74 485.07 778.47 501.89
  Q 777.47 509.24 775.66 519.35
  Q 774.04 528.42 772.08 536.39
  Q 767.12 556.46 759.30 576.87
  Q 758.64 578.59 760.31 579.36
  Q 762.71 580.47 766.19 579.20
  C 768.40 578.39 769.92 576.43 771.13 574.51
  C 775.09 568.28 779.25 562.40 782.77 555.81
  Q 790.94 540.52 797.42 525.09
  Q 797.89 523.97 798.07 522.77
  Q 798.09 522.62 798.23 522.55
  Q 798.36 522.49 798.52 522.55
  Q 798.75 522.65 798.76 522.90
  Q 798.80 524.63 798.14 526.33
  Q 789.24 549.27 780.24 566.04
  C 778.19 569.87 775.35 573.14 773.77 577.21
  Q 773.07 579.03 774.31 581.05
  C 776.66 584.87 779.19 588.16 780.41 592.66
  C 782.57 600.69 783.55 607.60 782.05 615.46
  Q 780.78 622.11 779.20 628.19
  C 778.30 631.64 776.68 634.85 775.53 638.21
  C 771.99 648.61 766.38 658.91 760.64 668.27
  Z
  M 143.23 542.51
  Q 142.82 558.10 143.58 573.24
  C 143.81 577.77 148.26 583.10 151.30 586.04
  Q 159.10 593.58 168.17 600.37
  Q 169.33 601.25 169.52 599.80
  Q 169.71 598.41 169.41 597.08
  C 168.27 591.87 167.33 586.68 167.55 581.31
  Q 168.42 560.55 166.47 540.78
  C 165.65 532.49 163.69 523.93 161.73 515.75
  Q 159.06 504.55 152.57 494.46
  Q 150.75 491.62 148.37 489.89
  A 2.56 2.55 -56.5 0 0 144.67 490.65
  Q 143.48 492.66 143.50 495.89
  Q 143.51 497.63 142.85 498.64
  Q 142.43 499.28 141.69 499.21
  A 1.18 1.17 -88.6 0 1 140.62 498.08
  C 140.16 482.56 139.55 469.56 135.47 455.29
  Q 132.68 445.54 127.48 438.59
  C 125.81 436.36 115.17 425.96 113.65 433.98
  C 112.40 440.56 112.03 447.20 111.41 453.89
  C 109.42 475.28 109.27 497.53 112.97 518.54
  Q 114.79 528.92 115.78 533.09
  Q 120.61 553.33 128.10 571.39
  C 130.03 576.04 134.09 577.40 138.78 577.57
  A 1.52 1.51 1.7 0 0 140.36 576.09
  Q 140.62 562.42 141.93 549.01
  Q 142.22 546.02 142.99 542.48
  Q 143.27 541.21 143.23 542.51
  Z
  M 741.70 533.85
  Q 741.89 533.87 741.88 534.07
  Q 741.69 536.06 741.77 538.19
  Q 742.34 552.38 743.37 567.11
  C 743.64 571.03 743.31 574.65 743.09 578.52
  Q 743.00 580.24 744.72 580.28
  C 750.81 580.41 754.36 579.03 756.77 573.19
  Q 765.36 552.34 769.62 530.84
  Q 770.99 523.95 772.10 515.09
  Q 773.53 503.64 773.83 498.76
  C 774.69 484.70 774.47 468.68 772.45 453.77
  Q 771.52 446.89 770.60 438.75
  C 770.45 437.43 770.03 434.90 768.49 434.14
  C 765.42 432.61 758.37 440.28 756.94 442.36
  Q 749.41 453.36 746.56 467.81
  Q 743.21 484.80 742.97 500.93
  Q 742.93 503.51 741.77 501.21
  Q 740.53 498.77 740.17 495.54
  Q 739.95 493.59 737.99 493.48
  Q 735.39 493.33 733.69 495.47
  Q 728.63 501.82 725.74 508.72
  Q 723.41 514.26 721.72 522.16
  Q 715.85 549.47 716.08 575.58
  Q 716.20 589.42 715.04 600.75
  Q 714.92 601.88 715.36 602.88
  Q 715.70 603.64 716.40 603.18
  C 726.17 596.73 735.09 589.22 740.32 578.86
  C 741.09 577.35 741.48 575.74 741.54 574.07
  Q 742.15 557.30 741.20 539.59
  Q 741.04 536.73 741.46 534.02
  Q 741.49 533.82 741.69 533.85
  L 741.70 533.85
  Z"
/>
<path fill="#eebca5" d="
  M 112.88 407.99
  L 112.54 425.74
  Q 111.78 437.49 109.69 444.74
  Q 106.53 455.70 105.92 461.64
  Q 103.78 482.57 106.53 504.40
  C 107.46 511.83 109.53 519.18 110.89 526.55
  Q 111.63 530.57 112.96 535.39
  C 116.54 548.37 120.23 561.38 125.01 573.98
  Q 125.68 575.75 123.86 576.28
  C 119.60 577.52 116.39 576.07 113.94 572.43
  C 110.52 567.34 106.96 562.73 104.01 557.20
  Q 96.83 543.78 90.74 530.69
  C 89.77 528.61 88.47 526.86 87.80 524.70
  Q 87.59 524.04 87.52 524.73
  Q 87.38 526.22 87.98 527.64
  Q 96.54 547.73 105.85 565.72
  C 107.37 568.65 109.44 571.07 110.92 574.08
  Q 111.51 575.26 110.84 576.40
  C 109.55 578.58 107.79 580.41 106.58 582.66
  Q 101.74 591.63 101.92 602.00
  Q 102.18 617.43 107.22 632.00
  Q 111.95 645.70 123.31 662.75
  Q 123.22 663.03 123.04 663.23
  A 0.38 0.38 0.0 0 1 122.49 663.25
  L 122.26 663.02
  Q 122.04 662.80 121.74 662.87
  Q 118.51 663.68 116.75 661.66
  Q 107.52 651.01 98.82 638.43
  Q 87.99 622.77 76.25 602.11
  Q 59.95 573.44 52.46 552.57
  C 48.82 542.42 44.64 531.90 41.53 521.03
  Q 39.37 513.52 37.30 505.95
  Q 35.33 498.72 33.22 490.98
  Q 31.24 483.71 29.62 475.92
  Q 25.40 455.59 22.08 434.50
  Q 21.08 428.16 16.51 418.52
  Q 26.42 410.07 39.23 411.23
  Q 42.72 411.55 45.71 413.56
  C 55.10 419.87 58.79 431.76 60.61 442.68
  Q 63.64 460.85 69.45 478.76
  Q 70.89 483.19 77.30 498.13
  Q 77.61 498.86 77.69 498.06
  Q 77.77 497.12 77.49 496.21
  Q 75.18 488.66 73.78 482.22
  Q 72.50 476.34 70.46 469.87
  C 68.74 464.42 68.00 458.69 66.62 453.03
  Q 65.34 447.80 64.57 442.22
  Q 63.82 436.83 62.85 430.92
  Q 60.52 416.78 60.24 402.27
  C 60.05 392.24 60.62 381.24 64.85 371.91
  Q 69.94 360.66 82.08 360.81
  Q 91.77 360.94 98.79 367.93
  C 103.07 372.19 105.34 377.09 108.05 383.00
  C 111.48 390.47 112.46 399.86 112.88 407.99
  Z"
/>
<path fill="#eebca5" d="
  M 868.94 424.37
  Q 868.05 430.22 864.22 430.70
  A 1.84 1.83 0.2 0 0 862.63 432.27
  Q 860.65 446.17 858.54 460.30
  C 857.79 465.29 856.58 470.02 855.75 474.98
  Q 854.84 480.39 853.26 486.09
  Q 849.46 499.86 845.66 514.22
  Q 840.61 533.27 829.58 561.31
  Q 823.85 575.89 819.25 584.53
  Q 809.95 602.02 800.69 618.42
  Q 792.13 633.58 777.12 653.45
  Q 772.34 659.79 768.02 666.41
  Q 765.78 669.83 761.50 669.99
  Q 761.00 670.01 760.84 669.54
  Q 760.62 668.89 760.64 668.27
  C 766.38 658.91 771.99 648.61 775.53 638.21
  C 776.68 634.85 778.30 631.64 779.20 628.19
  Q 780.78 622.11 782.05 615.46
  C 783.55 607.60 782.57 600.69 780.41 592.66
  C 779.19 588.16 776.66 584.87 774.31 581.05
  Q 773.07 579.03 773.77 577.21
  C 775.35 573.14 778.19 569.87 780.24 566.04
  Q 789.24 549.27 798.14 526.33
  Q 798.80 524.63 798.76 522.90
  Q 798.75 522.65 798.52 522.55
  Q 798.36 522.49 798.23 522.55
  Q 798.09 522.62 798.07 522.77
  Q 797.89 523.97 797.42 525.09
  Q 790.94 540.52 782.77 555.81
  C 779.25 562.40 775.09 568.28 771.13 574.51
  C 769.92 576.43 768.40 578.39 766.19 579.20
  Q 762.71 580.47 760.31 579.36
  Q 758.64 578.59 759.30 576.87
  Q 767.12 556.46 772.08 536.39
  Q 774.04 528.42 775.66 519.35
  Q 777.47 509.24 778.47 501.89
  Q 780.74 485.07 778.79 468.49
  Q 778.00 461.73 775.69 452.63
  Q 773.30 443.22 772.16 436.43
  Q 770.14 424.42 771.61 407.13
  C 772.07 401.66 773.48 396.56 774.78 391.42
  Q 776.35 385.19 781.13 377.00
  Q 783.83 372.36 788.82 368.52
  C 793.85 364.65 800.55 363.81 806.51 364.65
  C 813.79 365.66 818.75 372.39 820.94 378.95
  Q 824.00 388.09 824.13 400.90
  Q 824.25 412.81 822.98 422.42
  C 821.97 430.01 821.11 437.50 819.61 444.76
  C 818.05 452.35 817.01 459.86 814.92 467.37
  Q 813.49 472.49 812.43 477.79
  C 810.75 486.09 808.52 494.09 806.59 502.34
  Q 806.54 502.53 806.73 502.60
  L 806.74 502.60
  Q 806.90 502.65 806.96 502.50
  Q 811.21 492.43 814.80 482.81
  Q 816.46 478.36 817.70 473.49
  C 818.80 469.21 820.21 465.03 820.95 460.80
  C 822.20 453.58 823.97 444.07 825.40 438.82
  C 828.08 429.00 834.78 414.64 846.54 414.27
  Q 852.30 414.08 857.34 416.13
  Q 865.10 419.27 868.94 424.37
  Z"
/>
<path fill="#d0977b" d="
  M 112.88 407.99
  Q 114.24 416.41 113.30 425.18
  Q 113.29 425.25 113.23 425.23
  Q 113.18 425.22 113.13 425.18
  Q 113.04 425.10 112.92 425.15
  Q 112.69 425.25 112.54 425.74
  L 112.88 407.99
  Z"
/>
<path fill="#f67d24" d="
  M 460.67 543.79
  Q 449.76 545.47 443.21 551.84
  C 433.77 561.03 429.88 572.33 433.04 585.14
  Q 435.62 595.62 445.54 598.91
  Q 453.18 601.44 463.66 603.52
  C 466.74 604.14 469.60 605.09 472.15 606.85
  C 477.03 610.21 475.67 617.20 473.79 621.84
  C 465.77 641.55 449.32 656.39 432.89 669.09
  C 429.62 671.62 426.01 668.48 424.00 666.22
  C 414.10 655.11 404.23 645.79 393.99 635.67
  Q 389.67 631.39 385.31 628.60
  C 378.87 624.48 368.70 622.54 361.87 626.67
  C 355.66 630.42 352.59 638.27 350.33 645.15
  C 348.19 651.65 345.49 658.67 341.04 663.97
  C 335.94 670.03 323.81 669.84 317.99 665.12
  Q 304.49 654.20 303.04 637.24
  C 302.67 632.98 305.91 630.19 309.56 628.67
  Q 314.41 626.66 318.88 625.39
  C 324.47 623.81 330.56 623.33 336.38 621.80
  C 344.97 619.54 349.98 612.74 349.32 603.75
  Q 348.12 587.22 334.38 574.95
  Q 321.82 563.72 302.12 544.60
  C 299.89 542.44 297.89 539.76 295.99 537.15
  A 2.08 2.08 0.0 0 1 296.20 534.45
  C 302.66 527.93 309.74 521.46 316.21 514.81
  Q 323.03 507.80 329.80 501.26
  C 334.96 496.28 338.62 491.51 342.01 485.77
  Q 344.28 481.92 345.01 478.53
  C 346.59 471.23 330.51 467.36 325.69 466.78
  Q 317.66 465.80 310.61 464.73
  C 300.44 463.18 301.54 451.59 302.24 444.22
  Q 302.68 439.59 305.01 434.97
  Q 311.79 421.53 328.73 419.78
  C 333.44 419.30 341.21 420.13 343.90 424.65
  Q 345.49 427.32 346.06 430.12
  Q 347.98 439.50 350.79 450.33
  C 351.95 454.77 353.50 459.41 357.42 462.00
  C 363.21 465.82 370.91 461.67 375.59 457.68
  Q 382.05 452.18 387.96 446.21
  C 397.96 436.13 408.06 427.28 417.90 417.52
  Q 419.45 415.98 421.26 414.66
  A 1.94 1.94 0.0 0 1 423.80 414.87
  Q 439.76 431.18 454.74 446.53
  C 464.06 456.07 474.90 464.73 488.41 460.41
  C 495.85 458.03 499.56 451.21 501.39 443.96
  C 503.10 437.18 504.49 429.91 507.52 423.57
  Q 510.56 417.22 516.72 415.64
  C 528.50 412.63 541.73 417.21 548.43 427.69
  Q 554.05 436.48 553.33 445.61
  C 552.53 455.63 541.58 461.48 532.53 463.00
  Q 528.12 463.75 524.37 464.84
  C 515.71 467.38 503.11 472.03 503.52 483.14
  C 503.64 486.52 504.35 489.52 505.95 492.51
  Q 511.09 502.12 517.62 508.64
  Q 535.21 526.19 554.45 543.51
  Q 555.93 544.84 556.86 546.56
  A 0.73 0.71 52.1 0 1 556.77 547.38
  Q 541.66 564.21 523.10 581.19
  C 517.95 585.91 511.77 591.14 504.50 587.77
  Q 495.70 583.69 491.71 575.36
  Q 488.36 568.38 486.38 560.42
  Q 484.73 553.81 479.77 549.66
  C 474.44 545.20 467.37 542.76 460.67 543.79
  Z"
/>
<path fill="#d0977b" d="
  M 16.51 418.52
  Q 21.08 428.16 22.08 434.50
  Q 25.40 455.59 29.62 475.92
  Q 31.24 483.71 33.22 490.98
  Q 35.33 498.72 37.30 505.95
  Q 39.37 513.52 41.53 521.03
  C 44.64 531.90 48.82 542.42 52.46 552.57
  Q 59.95 573.44 76.25 602.11
  Q 87.99 622.77 98.82 638.43
  Q 107.52 651.01 116.75 661.66
  Q 118.51 663.68 121.74 662.87
  Q 122.04 662.80 122.26 663.02
  L 122.49 663.25
  A 0.38 0.38 0.0 0 0 123.04 663.23
  Q 123.22 663.03 123.31 662.75
  Q 136.08 686.19 159.70 699.13
  Q 165.12 701.35 167.85 703.40
  C 170.68 705.52 173.00 708.31 175.25 711.02
  C 177.80 714.08 181.21 716.27 184.97 717.58
  Q 205.80 724.82 226.17 735.45
  C 233.47 739.25 240.39 743.65 247.55 747.92
  C 263.81 757.64 279.17 769.43 293.46 782.23
  Q 308.38 795.60 318.45 808.41
  Q 331.81 825.39 343.26 844.96
  C 346.58 850.63 350.07 857.64 349.91 864.19
  Q 349.88 865.29 349.32 866.44
  Q 348.78 867.51 348.28 868.57
  Q 328.39 860.84 315.67 855.60
  C 313.58 854.74 311.79 853.04 310.62 851.04
  Q 301.91 836.22 286.76 823.86
  Q 269.46 809.74 251.95 802.27
  Q 234.13 794.67 216.07 786.93
  Q 210.00 784.33 202.45 780.98
  C 196.20 778.20 190.19 774.81 183.83 771.90
  Q 161.04 761.47 140.82 747.81
  Q 135.78 744.41 130.75 740.14
  Q 121.40 732.19 112.40 723.47
  Q 104.48 715.79 98.82 708.69
  C 83.32 689.24 70.83 667.50 61.64 644.29
  Q 53.09 622.69 46.99 605.89
  Q 41.03 589.51 34.28 570.10
  Q 31.30 561.55 29.07 553.66
  C 26.99 546.31 24.62 538.58 22.88 531.40
  Q 16.48 505.12 13.95 489.45
  Q 11.93 476.98 10.70 464.27
  Q 9.31 449.80 10.86 440.72
  Q 11.99 434.08 16.51 418.52
  Z"
/>
<path fill="#d0977b" d="
  M 868.94 424.37
  Q 869.76 428.71 870.77 432.35
  Q 872.33 438.01 872.70 440.27
  C 874.84 453.31 874.05 466.22 872.46 478.97
  Q 870.52 494.54 865.85 517.79
  Q 864.84 522.82 863.49 527.65
  C 862.30 531.92 861.58 536.22 860.31 540.67
  Q 857.33 551.06 854.25 561.41
  C 853.17 565.03 851.43 568.72 850.21 572.43
  Q 839.77 604.13 827.13 637.23
  Q 822.50 649.35 817.36 660.65
  C 810.28 676.23 799.83 693.59 788.32 708.76
  C 780.26 719.38 770.06 729.00 760.06 738.15
  Q 752.71 744.88 744.85 750.35
  Q 727.60 762.37 709.37 771.35
  Q 699.01 776.46 687.78 781.76
  C 668.93 790.66 649.46 797.73 630.31 806.47
  Q 625.13 808.83 620.86 811.36
  Q 601.10 823.07 588.53 835.57
  Q 581.10 842.95 574.53 853.88
  Q 573.03 856.37 570.00 858.12
  Q 560.70 863.47 552.52 866.29
  Q 544.37 869.10 535.55 869.67
  Q 535.07 867.28 534.50 864.74
  Q 533.88 861.93 536.29 857.10
  C 542.63 844.39 550.34 831.84 559.21 820.37
  C 566.33 811.17 573.18 802.48 581.57 794.41
  Q 602.79 774.00 624.74 758.97
  C 633.42 753.02 642.41 748.01 651.34 742.64
  Q 659.96 737.46 668.92 733.30
  Q 681.47 727.48 695.09 722.16
  C 697.30 721.29 699.46 720.10 701.58 719.00
  C 705.43 717.00 708.75 713.73 712.11 710.97
  Q 714.83 708.73 718.81 706.26
  Q 723.38 703.43 727.48 700.22
  Q 736.68 695.24 743.28 689.05
  Q 752.63 680.28 760.64 668.27
  Q 760.62 668.89 760.84 669.54
  Q 761.00 670.01 761.50 669.99
  Q 765.78 669.83 768.02 666.41
  Q 772.34 659.79 777.12 653.45
  Q 792.13 633.58 800.69 618.42
  Q 809.95 602.02 819.25 584.53
  Q 823.85 575.89 829.58 561.31
  Q 840.61 533.27 845.66 514.22
  Q 849.46 499.86 853.26 486.09
  Q 854.84 480.39 855.75 474.98
  C 856.58 470.02 857.79 465.29 858.54 460.30
  Q 860.65 446.17 862.63 432.27
  A 1.84 1.83 0.2 0 1 864.22 430.70
  Q 868.05 430.22 868.94 424.37
  Z"
/>
<path fill="#eebca5" d="
  M 142.99 542.48
  Q 142.22 546.02 141.93 549.01
  Q 140.62 562.42 140.36 576.09
  A 1.52 1.51 1.7 0 1 138.78 577.57
  C 134.09 577.40 130.03 576.04 128.10 571.39
  Q 120.61 553.33 115.78 533.09
  Q 114.79 528.92 112.97 518.54
  C 109.27 497.53 109.42 475.28 111.41 453.89
  C 112.03 447.20 112.40 440.56 113.65 433.98
  C 115.17 425.96 125.81 436.36 127.48 438.59
  Q 132.68 445.54 135.47 455.29
  C 139.55 469.56 140.16 482.56 140.62 498.08
  A 1.18 1.17 -88.6 0 0 141.69 499.21
  Q 142.43 499.28 142.85 498.64
  Q 143.51 497.63 143.50 495.89
  Q 143.48 492.66 144.67 490.65
  A 2.56 2.55 -56.5 0 1 148.37 489.89
  Q 150.75 491.62 152.57 494.46
  Q 159.06 504.55 161.73 515.75
  C 163.69 523.93 165.65 532.49 166.47 540.78
  Q 168.42 560.55 167.55 581.31
  C 167.33 586.68 168.27 591.87 169.41 597.08
  Q 169.71 598.41 169.52 599.80
  Q 169.33 601.25 168.17 600.37
  Q 159.10 593.58 151.30 586.04
  C 148.26 583.10 143.81 577.77 143.58 573.24
  Q 142.82 558.10 143.23 542.51
  Q 143.27 541.21 142.99 542.48
  Z"
/>
<path fill="#eebca5" d="
  M 741.46 534.02
  Q 741.04 536.73 741.20 539.59
  Q 742.15 557.30 741.54 574.07
  C 741.48 575.74 741.09 577.35 740.32 578.86
  C 735.09 589.22 726.17 596.73 716.40 603.18
  Q 715.70 603.64 715.36 602.88
  Q 714.92 601.88 715.04 600.75
  Q 716.20 589.42 716.08 575.58
  Q 715.85 549.47 721.72 522.16
  Q 723.41 514.26 725.74 508.72
  Q 728.63 501.82 733.69 495.47
  Q 735.39 493.33 737.99 493.48
  Q 739.95 493.59 740.17 495.54
  Q 740.53 498.77 741.77 501.21
  Q 742.93 503.51 742.97 500.93
  Q 743.21 484.80 746.56 467.81
  Q 749.41 453.36 756.94 442.36
  C 758.37 440.28 765.42 432.61 768.49 434.14
  C 770.03 434.90 770.45 437.43 770.60 438.75
  Q 771.52 446.89 772.45 453.77
  C 774.47 468.68 774.69 484.70 773.83 498.76
  Q 773.53 503.64 772.10 515.09
  Q 770.99 523.95 769.62 530.84
  Q 765.36 552.34 756.77 573.19
  C 754.36 579.03 750.81 580.41 744.72 580.28
  Q 743.00 580.24 743.09 578.52
  C 743.31 574.65 743.64 571.03 743.37 567.11
  Q 742.34 552.38 741.77 538.19
  Q 741.69 536.06 741.88 534.07
  Q 741.89 533.87 741.70 533.85
  L 741.69 533.85
  Q 741.49 533.82 741.46 534.02
  Z"
/>
<path fill="#eebca5" d="
  M 125.63 580.55
  Q 115.37 590.67 114.08 602.51
  Q 112.83 613.90 117.90 623.61
  Q 125.50 638.18 138.09 650.50
  C 142.57 654.88 145.70 658.90 151.65 652.90
  Q 163.17 641.25 175.02 629.27
  Q 177.88 626.38 180.44 624.91
  Q 187.65 630.62 195.33 636.67
  Q 203.02 642.72 218.92 652.33
  Q 229.03 658.44 242.47 665.71
  Q 251.19 670.43 259.85 674.45
  Q 278.12 682.93 296.04 689.96
  Q 311.43 695.99 321.10 701.20
  C 326.35 704.02 331.64 706.63 336.62 709.61
  Q 357.32 722.02 373.81 736.99
  Q 381.41 743.89 390.53 754.47
  Q 416.95 785.13 429.08 823.90
  Q 433.03 836.54 435.86 850.46
  Q 437.74 859.74 436.34 869.01
  C 436.07 870.81 435.58 872.12 433.69 872.65
  C 427.27 874.45 421.31 876.46 414.65 876.64
  Q 396.32 877.12 386.53 875.65
  Q 378.49 874.44 370.29 873.31
  C 362.85 872.29 355.58 870.46 348.28 868.57
  Q 348.78 867.51 349.32 866.44
  Q 349.88 865.29 349.91 864.19
  C 350.07 857.64 346.58 850.63 343.26 844.96
  Q 331.81 825.39 318.45 808.41
  Q 308.38 795.60 293.46 782.23
  C 279.17 769.43 263.81 757.64 247.55 747.92
  C 240.39 743.65 233.47 739.25 226.17 735.45
  Q 205.80 724.82 184.97 717.58
  C 181.21 716.27 177.80 714.08 175.25 711.02
  C 173.00 708.31 170.68 705.52 167.85 703.40
  Q 165.12 701.35 159.70 699.13
  Q 154.22 694.01 148.89 688.88
  C 135.91 676.39 126.46 662.09 118.85 644.97
  C 113.46 632.85 110.26 619.56 107.50 606.28
  C 105.81 598.13 108.03 591.16 111.96 583.98
  C 114.16 579.95 121.68 580.19 125.63 580.55
  Z"
/>
<path fill="#ffffff" d="
  M 180.44 624.91
  Q 177.88 626.38 175.02 629.27
  Q 163.17 641.25 151.65 652.90
  C 145.70 658.90 142.57 654.88 138.09 650.50
  Q 125.50 638.18 117.90 623.61
  Q 112.83 613.90 114.08 602.51
  Q 115.37 590.67 125.63 580.55
  Q 127.87 579.69 131.02 580.53
  Q 135.88 581.82 146.57 587.75
  Q 156.91 593.49 164.93 604.38
  Q 167.81 608.30 170.99 613.52
  Q 173.90 618.29 180.44 624.91
  Z"
/>
<path fill="#eebca5" d="
  M 727.48 700.22
  Q 723.38 703.43 718.81 706.26
  Q 714.83 708.73 712.11 710.97
  C 708.75 713.73 705.43 717.00 701.58 719.00
  C 699.46 720.10 697.30 721.29 695.09 722.16
  Q 681.47 727.48 668.92 733.30
  Q 659.96 737.46 651.34 742.64
  C 642.41 748.01 633.42 753.02 624.74 758.97
  Q 602.79 774.00 581.57 794.41
  C 573.18 802.48 566.33 811.17 559.21 820.37
  C 550.34 831.84 542.63 844.39 536.29 857.10
  Q 533.88 861.93 534.50 864.74
  Q 535.07 867.28 535.55 869.67
  C 529.31 871.07 523.27 872.50 516.98 873.29
  C 509.51 874.23 501.98 875.69 494.63 876.26
  Q 476.99 877.63 459.48 877.52
  Q 452.54 877.47 446.99 873.84
  Q 446.00 873.19 446.03 872.01
  Q 446.10 869.90 446.54 867.63
  C 448.21 858.98 449.32 850.62 451.37 842.15
  Q 455.05 826.93 460.51 812.86
  C 466.54 797.32 475.11 781.50 485.54 767.96
  Q 500.08 749.08 515.58 735.85
  Q 530.12 723.44 550.93 711.44
  Q 553.98 709.68 559.71 706.91
  C 565.32 704.20 571.11 700.91 576.71 698.38
  Q 581.00 696.44 585.00 694.73
  Q 610.10 684.03 634.61 672.84
  C 645.98 667.65 657.21 660.66 667.90 654.33
  Q 681.84 646.07 697.35 633.30
  Q 701.18 630.15 704.94 627.28
  Q 708.68 629.58 709.62 630.64
  Q 721.02 643.46 733.15 656.55
  C 735.53 659.11 738.43 660.76 741.48 658.17
  Q 758.28 643.93 766.89 626.05
  Q 770.91 617.71 770.17 610.00
  Q 769.29 600.98 765.23 594.91
  C 762.57 590.95 758.89 587.59 755.52 583.88
  Q 759.66 583.10 764.26 583.49
  C 770.82 584.04 774.38 588.03 775.58 594.27
  Q 777.18 602.55 775.94 613.70
  Q 774.34 628.13 769.58 640.19
  Q 760.26 663.81 743.91 683.42
  Q 739.23 689.02 727.48 700.22
  Z"
/>
<path fill="#ffffff" d="
  M 755.52 583.88
  C 758.89 587.59 762.57 590.95 765.23 594.91
  Q 769.29 600.98 770.17 610.00
  Q 770.91 617.71 766.89 626.05
  Q 758.28 643.93 741.48 658.17
  C 738.43 660.76 735.53 659.11 733.15 656.55
  Q 721.02 643.46 709.62 630.64
  Q 708.68 629.58 704.94 627.28
  Q 711.65 619.70 717.07 611.30
  Q 721.05 605.13 723.72 602.34
  Q 736.95 588.54 755.52 583.88
  Z"
/>
</svg>
