<?xml version="1.0" encoding="UTF-8" standalone="no"?>
<!DOCTYPE svg PUBLIC "-//W3C//DTD SVG 1.1//EN" "http://www.w3.org/Graphics/SVG/1.1/DTD/svg11.dtd">
<svg xmlns="http://www.w3.org/2000/svg" version="1.1" viewBox="0.00 0.00 335.00 286.00">
<path fill="#fff" d="
  M 72.69 167.62
  Q 72.76 166.53 71.94 167.26
  C 51.98 185.02 19.34 186.88 6.18 159.89
  C -2.66 141.73 5.85 120.71 23.51 112.12
  C 39.56 104.31 59.19 111.24 72.04 122.15
  A 0.47 0.47 0.0 0 0 72.82 121.78
  Q 72.16 83.95 76.36 47.03
  Q 78.04 32.27 80.47 22.33
  Q 80.95 20.35 83.14 19.81
  Q 86.99 18.85 91.48 18.34
  Q 104.11 16.92 120.75 16.41
  Q 145.60 15.64 172.18 15.65
  A 0.51 0.50 87.5 0 1 172.68 16.12
  Q 172.70 16.45 172.48 16.71
  C 156.03 35.91 152.41 65.85 176.83 80.64
  C 193.15 90.52 214.25 85.53 224.99 69.43
  C 230.90 60.58 231.67 50.60 229.81 40.33
  Q 227.22 26.03 217.13 17.00
  A 0.54 0.54 0.0 0 1 217.41 16.06
  Q 240.17 12.64 262.58 14.05
  C 279.65 15.13 295.31 16.75 310.59 21.40
  C 313.31 22.23 317.87 23.68 318.46 26.99
  Q 325.14 64.34 327.06 104.14
  Q 330.98 185.84 318.44 266.79
  Q 318.28 267.88 317.19 268.08
  C 258.73 278.92 198.44 281.54 139.35 276.87
  C 122.06 275.51 104.41 273.36 87.28 269.31
  C 84.91 268.75 83.29 267.66 82.33 265.35
  C 77.90 254.68 75.40 243.33 74.18 231.92
  Q 70.76 199.93 72.69 167.62
  Z"
/>
</svg>
