<?xml version="1.0" standalone="no"?>
<!DOCTYPE svg PUBLIC "-//W3C//DTD SVG 20010904//EN"
 "http://www.w3.org/TR/2001/REC-SVG-20010904/DTD/svg10.dtd">
<svg version="1.0" xmlns="http://www.w3.org/2000/svg"
 width="301.000000pt" height="299.000000pt" viewBox="0 0 301.000000 299.000000"
 preserveAspectRatio="xMidYMid meet">

<g transform="translate(0.000000,299.000000) scale(0.100000,-0.100000)"
fill="#fff">
<path fill="#fff" d="M1345 2957 c-146 -49 -214 -137 -202 -265 6 -75 31 -122 106 -205 64
-71 71 -86 45 -108 -17 -14 -43 -11 -264 36 -141 31 -278 37 -327 17 -22 -10
-37 -27 -50 -55 -16 -37 -18 -73 -18 -330 0 -245 -2 -289 -15 -297 -27 -17
-41 -11 -104 50 -73 70 -115 90 -189 90 -114 0 -197 -53 -249 -157 -65 -132
-47 -332 39 -432 49 -58 101 -81 183 -81 84 0 131 22 214 99 71 67 109 79 120
39 3 -13 6 -93 6 -178 0 -182 16 -433 31 -508 19 -92 27 -96 198 -88 80 3 209
14 286 25 145 19 176 16 193 -16 14 -27 5 -43 -55 -101 -65 -64 -85 -107 -85
-187 -1 -166 121 -274 318 -283 159 -7 273 44 327 148 25 48 28 63 24 120 -5
82 -31 133 -108 216 -33 36 -59 72 -57 81 8 39 30 39 295 -5 345 -57 410 -65
428 -58 27 10 16 191 -36 612 -21 172 -18 207 20 219 27 8 53 -7 89 -53 17
-21 54 -51 82 -66 46 -25 59 -28 123 -24 143 8 231 86 267 236 14 59 9 183 -9
244 -21 67 -72 130 -131 161 -49 26 -63 28 -125 25 -85 -6 -118 -22 -201 -99
-64 -59 -97 -72 -122 -47 -9 9 -12 85 -13 278 -1 306 -9 437 -30 452 -27 18
-158 -2 -356 -53 -237 -62 -265 -67 -298 -45 -45 29 -34 69 39 146 52 56 66
77 75 119 27 128 -42 257 -168 314 -58 26 -234 34 -296 14z"/>
</g>
</svg>
