<?xml version="1.0" standalone="no"?>
<!DOCTYPE svg PUBLIC "-//W3C//DTD SVG 20010904//EN"
 "http://www.w3.org/TR/2001/REC-SVG-20010904/DTD/svg10.dtd">
<svg version="1.0" xmlns="http://www.w3.org/2000/svg"
 width="234.000000pt" height="261.000000pt" viewBox="0 0 234.000000 261.000000"
 preserveAspectRatio="xMidYMid meet">

<g transform="translate(0.000000,261.000000) scale(0.100000,-0.100000)"
fill="#fff">
<path fill="#fff" d="M625 2549 c-82 -10 -197 -23 -254 -29 -202 -21 -278 -65 -300 -172
-6 -29 -15 -168 -21 -308 -5 -140 -13 -307 -16 -370 -6 -108 -5 -117 16 -142
16 -21 30 -28 56 -28 47 0 67 12 148 88 88 83 150 112 236 112 181 -1 291
-156 277 -394 -6 -123 -34 -195 -101 -261 -60 -60 -121 -85 -208 -85 -82 0
-122 20 -204 102 -62 61 -77 71 -115 75 -35 4 -50 0 -71 -17 -50 -39 -52 -74
-19 -343 16 -133 32 -280 36 -327 9 -116 31 -219 52 -243 29 -32 87 -56 195
-82 122 -29 347 -63 475 -72 l92 -6 30 31 c17 17 31 38 31 47 0 35 -31 84 -92
147 -75 76 -110 140 -116 215 -7 83 14 140 73 199 77 77 139 98 290 98 101 0
129 -3 177 -22 125 -50 200 -156 201 -282 1 -85 -20 -128 -99 -205 -34 -33
-67 -70 -73 -82 -29 -56 1 -122 64 -143 62 -20 673 10 815 41 76 16 96 41 106
125 17 163 -29 837 -61 891 -33 57 -104 78 -171 53 -15 -6 -62 -44 -104 -84
-88 -83 -133 -102 -230 -93 -67 6 -148 45 -186 90 -108 129 -126 357 -39 514
58 106 158 155 273 133 74 -14 106 -33 193 -116 108 -103 173 -111 222 -26 18
30 19 56 19 350 0 319 -11 476 -36 536 -11 27 -22 35 -60 45 -53 13 -355 37
-603 47 l-171 7 -26 -26 c-49 -49 -33 -99 65 -203 86 -91 112 -145 113 -235 1
-157 -125 -263 -329 -276 -236 -16 -415 116 -415 304 0 82 19 121 101 208 42
45 79 93 83 108 10 42 -17 95 -58 112 -43 18 -71 18 -261 -6z"/>
</g>
</svg>
