<?xml version="1.0" standalone="no"?>
<!DOCTYPE svg PUBLIC "-//W3C//DTD SVG 20010904//EN"
 "http://www.w3.org/TR/2001/REC-SVG-20010904/DTD/svg10.dtd">
<svg version="1.0" xmlns="http://www.w3.org/2000/svg"
 width="272.000000pt" height="239.000000pt" viewBox="0 0 272.000000 239.000000"
 preserveAspectRatio="xMidYMid meet">

<g transform="translate(0.000000,239.000000) scale(0.100000,-0.100000)"
fill="#fff">
<path fill="#fff" d="M848 2359 c-93 -10 -149 -55 -169 -135 -6 -21 -13 -192 -15 -379 -5
-282 -8 -346 -21 -373 -9 -19 -23 -36 -30 -39 -9 -4 -39 18 -76 55 -86 83
-115 97 -208 97 -65 -1 -85 -5 -135 -30 -111 -57 -174 -180 -174 -339 0 -186
76 -313 209 -352 105 -31 201 -1 305 96 66 62 101 84 116 75 21 -13 30 -89 30
-255 0 -191 15 -438 30 -522 6 -29 18 -64 29 -78 37 -51 192 -92 489 -130 144
-19 164 -19 196 -6 38 16 53 48 42 91 -4 14 -36 58 -73 98 -86 94 -106 139
-101 228 5 93 38 141 132 189 67 34 72 35 186 35 114 0 119 -1 186 -35 81 -41
126 -99 144 -184 18 -89 0 -137 -82 -223 -56 -57 -71 -79 -75 -110 -4 -32 -1
-45 20 -69 l25 -29 229 2 c336 2 545 25 583 63 12 12 21 43 27 97 13 127 9
1592 -5 1785 -14 186 -27 277 -41 291 -25 25 -82 29 -1036 67 -664 26 -671 26
-737 19z"/>
</g>
</svg>
