<?xml version="1.0" standalone="no"?>
<!DOCTYPE svg PUBLIC "-//W3C//DTD SVG 20010904//EN"
 "http://www.w3.org/TR/2001/REC-SVG-20010904/DTD/svg10.dtd">
<svg version="1.0" xmlns="http://www.w3.org/2000/svg"
 width="271.000000pt" height="287.000000pt" viewBox="0 0 271.000000 287.000000"
 preserveAspectRatio="xMidYMid meet">

<g transform="translate(0.000000,287.000000) scale(0.100000,-0.100000)"
fill="#fff">
<path fill="#fff" d="M1460 2826 c-157 -45 -239 -150 -228 -290 7 -80 35 -135 114 -219 43
-45 64 -76 64 -92 0 -40 -27 -47 -147 -35 -139 13 -330 13 -413 -1 -75 -12
-133 -42 -149 -76 -26 -57 -34 -168 -26 -383 11 -294 12 -286 -10 -309 -29
-33 -53 -25 -123 43 -89 85 -120 100 -207 100 -130 0 -237 -75 -286 -202 -33
-83 -33 -253 0 -335 53 -134 133 -192 261 -192 93 1 137 22 231 110 121 113
139 99 139 -115 0 -178 17 -482 31 -569 19 -120 38 -137 195 -176 120 -31 458
-78 500 -70 41 7 67 37 66 76 -1 38 -21 70 -84 132 -200 199 -75 447 226 447
195 0 334 -109 336 -265 0 -76 -18 -114 -90 -186 -71 -72 -85 -102 -68 -151
17 -48 51 -58 200 -58 257 0 536 23 624 51 52 16 59 48 58 254 -2 188 -28 553
-45 617 -14 53 -50 78 -113 78 -58 0 -75 -10 -157 -91 -44 -45 -66 -59 -107
-69 -55 -13 -128 -3 -180 24 -109 57 -173 231 -142 388 30 155 115 238 242
238 71 -1 127 -27 201 -98 72 -69 94 -82 137 -82 40 0 76 36 86 84 10 57 -3
664 -16 717 -19 78 -33 84 -174 82 -66 -1 -202 -11 -301 -22 -234 -27 -250
-27 -280 4 -40 40 -33 68 34 132 82 76 105 132 99 234 -5 88 -32 144 -95 199
-68 60 -135 82 -253 86 -66 2 -122 -1 -150 -10z"/>
</g>
</svg>
